<?xml version="1.0" encoding="utf-8"?>
<svg contentScriptType="text/ecmascript" xmlns:xlink="http://www.w3.org/1999/xlink" zoomAndPan="magnify" contentStyleType="text/css" viewBox="362.9865000000001 171.0 395.5134999999999 328.7810005" xmlns:cacoo="http://cacoo.com/" preserveAspectRatio="xMidYMin meet" xmlns="http://www.w3.org/2000/svg" version="1.1"><defs><linearGradient x1="0%" xmlns:xlink="http://www.w3.org/1999/xlink" y1="0%" x2="0%" y2="100%" xlink:type="simple" xlink:actuate="onLoad" id="id0" xlink:show="other"><stop stop-opacity="1.0" stop-color="#e4e4e4" offset="0%"/><stop stop-opacity="1.0" stop-color="#bababa" offset="100%"/></linearGradient><linearGradient x1="0%" xmlns:xlink="http://www.w3.org/1999/xlink" y1="0%" x2="0%" y2="100%" xlink:type="simple" xlink:actuate="onLoad" id="id1" xlink:show="other"><stop stop-opacity="1.0" stop-color="#e4e4e4" offset="0%"/><stop stop-opacity="1.0" stop-color="#bababa" offset="100%"/></linearGradient><linearGradient x1="0%" xmlns:xlink="http://www.w3.org/1999/xlink" y1="0%" x2="0%" y2="100%" xlink:type="simple" xlink:actuate="onLoad" id="id2" xlink:show="other"><stop stop-opacity="1.0" stop-color="#e4e4e4" offset="0%"/><stop stop-opacity="1.0" stop-color="#bababa" offset="100%"/></linearGradient><linearGradient x1="0%" xmlns:xlink="http://www.w3.org/1999/xlink" y1="0%" x2="0%" y2="100%" xlink:type="simple" xlink:actuate="onLoad" id="id3" xlink:show="other"><stop stop-opacity="1.0" stop-color="#e4e4e4" offset="0%"/><stop stop-opacity="1.0" stop-color="#bababa" offset="100%"/></linearGradient><linearGradient x1="0%" xmlns:xlink="http://www.w3.org/1999/xlink" y1="0%" x2="0%" y2="100%" xlink:type="simple" xlink:actuate="onLoad" id="id4" xlink:show="other"><stop stop-opacity="1.0" stop-color="#e4e4e4" offset="0%"/><stop stop-opacity="1.0" stop-color="#bababa" offset="100%"/></linearGradient><linearGradient x1="0%" xmlns:xlink="http://www.w3.org/1999/xlink" y1="0%" x2="0%" y2="100%" xlink:type="simple" xlink:actuate="onLoad" id="id5" xlink:show="other"><stop stop-opacity="1.0" stop-color="#e4e4e4" offset="0%"/><stop stop-opacity="1.0" stop-color="#bababa" offset="100%"/></linearGradient></defs><g><g transform="translate(499.501 331.991)"><path fill="#dcdde2" fill-opacity="1.0" d="M88.54599501000001 12.654 L56.85100301 36.235 L0.09200001 23.141 L33.02100001 0.0 L88.54600001 12.654 L88.54599501000001 12.654z" stroke="none"/><path fill="#cbccd1" fill-opacity="1.0" d="M-0.15200001 23.494 L56.85099999 36.703 L56.85099999 48.584 L-0.15200001 35.178002 L-0.15200001 23.494 L-0.15200001 23.494z" stroke="none"/><path fill="#e3e3e5" fill-opacity="1.0" d="M12.905 28.934 L54.409 38.829002 L54.409 46.059002 L12.905 36.0320015 L12.905 28.934001907348602 L12.905 28.934z" stroke="none"/><path fill="#bec0c6" fill-opacity="1.0" d="M88.93100000000001 12.654 L56.222 35.754002 L56.851001600000004 48.318 L88.998 24.345001 L88.93100000000001 12.6540009536743 L88.93100000000001 12.654z" stroke="none"/><path fill="#f4f4f4" fill-opacity="1.0" d="M58.06 36.835999 L88.812004 13.233999 L88.53001 12.483999 L56.812 35.126999 Q56.38 35.448997000000006 55.714 35.323997000000006 Q55.56663 35.296177 46.8277 33.387329 Q43.107456 32.574714 37.897217 31.435844 Q33.32002 30.435349000000002 27.696125 29.205625 Q22.903204 28.157604 17.515142 26.979204000000003 Q13.235386 26.043195 8.644984 25.039108 Q5.362713 24.321155 2.3763654 23.6678655 Q0.8638282 23.336986000000003 0.0 23.148000000000003 L0.0 23.771 Q0.8697343 23.973125000000003 2.3924334 24.3270185 Q5.437832 25.034809000000003 8.702656 25.793655 Q13.284103 26.858528 17.63005 27.868778 Q23.075314 29.134569 27.873999 30.250249 Q33.555195 31.571109 38.13389 32.635940000000005 Q43.378277 33.855587 47.109093 34.723715999999996 Q55.886135 36.766063 56.003 36.797001 Q56.343998 36.885002 56.425 37.327999000000005 L56.425 48.424001000000004 L56.850998 48.318999000000005 Q57.685997 48.161001 57.685997 46.855999 Q57.685997 37.477249 57.684998 37.445999 Q57.670998 37.023998000000006 58.059998 36.836998 L58.06 36.835999z" stroke="none"/><path fill="none" d="M33.405 0.0 L0.0 23.148 L0.0 34.953003 L56.994 48.617004 L88.998 24.345005 L88.998 12.578 L33.405 0.0 L33.405 0.0z" stroke-width="1.0" stroke-linejoin="round" stroke="#757575"/><path fill="none" d="M60.274 33.657 L60.274 33.657z" stroke-width="1.0" stroke-linejoin="round" stroke="#aaaaaa"/><path fill="#757575" fill-opacity="1.0" d="M25.736999599999997 33.4199999 L20.83 32.281 L20.83 35.983999 L21.842001 36.6009997 L24.533001 37.923002 L24.533001 37.2750033 L25.735999999999997 37.1390017 L25.735999999999997 33.4199999 L25.736999599999997 33.4199999z" stroke="none"/><path fill="#757575" fill-opacity="1.0" d="M18.9389996 31.730999100000002 L14.032 30.594 L14.032 34.297001 L14.6019997 34.430000400000004 L14.6019997 34.8030015 L15.0449995 35.625 L17.734999000000002 36.236000000000004 L18.0499996 35.2420007 L18.938 35.4510004 L18.938 31.7299997 L18.9389996 31.730999100000002z" stroke="none"/><path fill="#757575" fill-opacity="1.0" d="M32.534001 34.917001 L27.626 33.78 L27.626 37.482999 L28.1959997 37.6159985 L28.6399999 38.0999997 L28.6399999 38.810998 L31.331000000000003 39.4219983 L31.647000000000002 38.8519986 L31.647000000000002 38.427999 L32.534001 38.6369984 L32.534001 34.9159978 L32.534001 34.917001z" stroke="none"/><path fill="#757575" fill-opacity="1.0" d="M39.331001 36.5079999 L34.425003 35.369 L34.425003 39.071999 L34.99400324 39.2069974 L34.99400324 39.5799985 L38.12700649999999 41.011002 L38.12700649999999 40.3630033 L39.330009399999994 40.226006 L39.330009399999994 36.5070043 L39.331001 36.5079999z" stroke="none"/><path fill="#757575" fill-opacity="1.0" d="M46.127998000000005 38.098001 L41.222 36.961 L41.222 40.663999 L41.7900008 40.7969985 L42.234001 41.991997999999995 L44.9239997 42.602998299999996 L44.9239997 41.9549995 L46.127002600000004 41.8190017 L46.127002600000004 38.098001 L46.127998000000005 38.098001z" stroke="none"/><path fill="#757575" fill-opacity="1.0" d="M52.924999 39.689999900000004 L48.018997 38.551 L48.018997 42.253999 L48.588996699999996 42.3889974 L48.588996699999996 42.759996 L49.031997499999996 43.583997000000004 L51.721996 44.1929983 L52.0369947 43.200002000000005 L52.923996 43.409001700000005 L52.923996 39.689999900000004 L52.924999 39.689999900000004z" stroke="none"/><path fill="#757575" fill-opacity="1.0" d="M1.911 28.0919983 L10.661 30.1489975 L10.661 28.7269966 L1.911 26.7 L1.911 28.0929996 L1.911 28.0919983z" stroke="none"/><path fill="#757575" fill-opacity="1.0" d="M1.911 30.573000200000003 L10.661 32.6300013 L10.661 31.2080004 L1.91100023841858 29.181 L1.91100023841858 30.5739996 L1.911 30.573000200000003z" stroke="none"/><path fill="#757575" fill-opacity="1.0" d="M1.911 32.9630012 L10.661 35.0220031 L10.661 33.5999984 L1.91100023841858 31.572998 L1.91100023841858 32.9639968 L1.911 32.9630012z" stroke="none"/></g><g transform="translate(499.501 319.0)"><path fill="#dcdde2" fill-opacity="1.0" d="M88.54599501000001 12.654 L56.85100301 36.235 L0.09200001 23.141 L33.02100001 0.0 L88.54600001 12.654 L88.54599501000001 12.654z" stroke="none"/><path fill="#cbccd1" fill-opacity="1.0" d="M-0.15200001 23.494 L56.85099999 36.703 L56.85099999 48.584 L-0.15200001 35.178002 L-0.15200001 23.494 L-0.15200001 23.494z" stroke="none"/><path fill="#e3e3e5" fill-opacity="1.0" d="M12.905 28.934 L54.409 38.829002 L54.409 46.059002 L12.905 36.0320015 L12.905 28.934001907348602 L12.905 28.934z" stroke="none"/><path fill="#bec0c6" fill-opacity="1.0" d="M88.93100000000001 12.654 L56.222 35.754002 L56.851001600000004 48.318 L88.998 24.345001 L88.93100000000001 12.6540009536743 L88.93100000000001 12.654z" stroke="none"/><path fill="#f4f4f4" fill-opacity="1.0" d="M58.06 36.835999 L88.812004 13.233999 L88.53001 12.483999 L56.812 35.126999 Q56.38 35.448997000000006 55.714 35.323997000000006 Q55.56663 35.296177 46.8277 33.387329 Q43.107456 32.574714 37.897217 31.435844 Q33.32002 30.435349000000002 27.696125 29.205625 Q22.903204 28.157604 17.515142 26.979204000000003 Q13.235386 26.043195 8.644984 25.039108 Q5.362713 24.321155 2.3763654 23.6678655 Q0.8638282 23.336986000000003 0.0 23.148000000000003 L0.0 23.771 Q0.8697343 23.973125000000003 2.3924334 24.3270185 Q5.437832 25.034809000000003 8.702656 25.793655 Q13.284103 26.858528 17.63005 27.868778 Q23.075314 29.134569 27.873999 30.250249 Q33.555195 31.571109 38.13389 32.635940000000005 Q43.378277 33.855587 47.109093 34.723715999999996 Q55.886135 36.766063 56.003 36.797001 Q56.343998 36.885002 56.425 37.327999000000005 L56.425 48.424001000000004 L56.850998 48.318999000000005 Q57.685997 48.161001 57.685997 46.855999 Q57.685997 37.477249 57.684998 37.445999 Q57.670998 37.023998000000006 58.059998 36.836998 L58.06 36.835999z" stroke="none"/><path fill="none" d="M33.405 0.0 L0.0 23.148 L0.0 34.953003 L56.994 48.617004 L88.998 24.345005 L88.998 12.578 L33.405 0.0 L33.405 0.0z" stroke-width="1.0" stroke-linejoin="round" stroke="#757575"/><path fill="none" d="M60.274 33.657 L60.274 33.657z" stroke-width="1.0" stroke-linejoin="round" stroke="#aaaaaa"/><path fill="#757575" fill-opacity="1.0" d="M25.736999599999997 33.4199999 L20.83 32.281 L20.83 35.983999 L21.842001 36.6009997 L24.533001 37.923002 L24.533001 37.2750033 L25.735999999999997 37.1390017 L25.735999999999997 33.4199999 L25.736999599999997 33.4199999z" stroke="none"/><path fill="#757575" fill-opacity="1.0" d="M18.9389996 31.730999100000002 L14.032 30.594 L14.032 34.297001 L14.6019997 34.430000400000004 L14.6019997 34.8030015 L15.0449995 35.625 L17.734999000000002 36.236000000000004 L18.0499996 35.2420007 L18.938 35.4510004 L18.938 31.7299997 L18.9389996 31.730999100000002z" stroke="none"/><path fill="#757575" fill-opacity="1.0" d="M32.534001 34.917001 L27.626 33.78 L27.626 37.482999 L28.1959997 37.6159985 L28.6399999 38.0999997 L28.6399999 38.810998 L31.331000000000003 39.4219983 L31.647000000000002 38.8519986 L31.647000000000002 38.427999 L32.534001 38.6369984 L32.534001 34.9159978 L32.534001 34.917001z" stroke="none"/><path fill="#757575" fill-opacity="1.0" d="M39.331001 36.5079999 L34.425003 35.369 L34.425003 39.071999 L34.99400324 39.2069974 L34.99400324 39.5799985 L38.12700649999999 41.011002 L38.12700649999999 40.3630033 L39.330009399999994 40.226006 L39.330009399999994 36.5070043 L39.331001 36.5079999z" stroke="none"/><path fill="#757575" fill-opacity="1.0" d="M46.127998000000005 38.098001 L41.222 36.961 L41.222 40.663999 L41.7900008 40.7969985 L42.234001 41.991997999999995 L44.9239997 42.602998299999996 L44.9239997 41.9549995 L46.127002600000004 41.8190017 L46.127002600000004 38.098001 L46.127998000000005 38.098001z" stroke="none"/><path fill="#757575" fill-opacity="1.0" d="M52.924999 39.689999900000004 L48.018997 38.551 L48.018997 42.253999 L48.588996699999996 42.3889974 L48.588996699999996 42.759996 L49.031997499999996 43.583997000000004 L51.721996 44.1929983 L52.0369947 43.200002000000005 L52.923996 43.409001700000005 L52.923996 39.689999900000004 L52.924999 39.689999900000004z" stroke="none"/><path fill="#757575" fill-opacity="1.0" d="M1.911 28.0919983 L10.661 30.1489975 L10.661 28.7269966 L1.911 26.7 L1.911 28.0929996 L1.911 28.0919983z" stroke="none"/><path fill="#757575" fill-opacity="1.0" d="M1.911 30.573000200000003 L10.661 32.6300013 L10.661 31.2080004 L1.91100023841858 29.181 L1.91100023841858 30.5739996 L1.911 30.573000200000003z" stroke="none"/><path fill="#757575" fill-opacity="1.0" d="M1.911 32.9630012 L10.661 35.0220031 L10.661 33.5999984 L1.91100023841858 31.572998 L1.91100023841858 32.9639968 L1.911 32.9630012z" stroke="none"/></g><g transform="translate(377.9865000000001 186.0)"><path fill="#949ba8" fill-opacity="1.0" d="M50.43800002 3.54 L23.33200102 74.999 L0.07700002 19.603 L25.70900002 0.0 L50.43800002 3.54 L50.43800002 3.54z" stroke="none"/><path fill="#757a8a" fill-opacity="1.0" d="M50.764999 3.54 L24.238000399999997 23.802001 L23.586 74.86500000000001 L50.633003 54.427997 L50.764999 3.54 L50.764999 3.54z" stroke="none"/><path fill="#8e9098" fill-opacity="1.0" d="M0.21200001 19.902 L23.58600001 23.849000500000002 L23.40100101 75.031997 L0.2149999714 71.196 L0.21200001 19.902 L0.21200001 19.902z" stroke="none"/><path fill="#9ea4ad" fill-opacity="1.0" d="M24.61 24.0280001 L50.662 4.032 L50.424 3.3960001 L24.629 22.4390001 Q23.188 22.8540001 22.623 22.7459981 Q22.4982 22.7222771 18.935015 22.227045099999998 Q16.085445 21.8309961 11.175375 21.1526261 Q7.67229 20.6686441 3.483797 20.091140099999997 Q2.1758516 19.9108071 0.9571934 19.7428781 Q0.34781253 19.6589071 0.0 19.6110001 Q0.35281253 20.1950931 0.97079694 20.298655099999998 Q2.2067657 20.5057761 3.5326252 20.728110100000002 Q7.7753754 21.4395771 11.326 22.0363751 Q16.296791 22.8718761 19.173374 23.358704099999997 Q22.768997 23.967218099999997 22.868 23.993000100000003 Q23.156 24.0680001 23.225 24.444000099999997 L23.225 74.8110001 L23.786001 75.2560001 Q24.293001 74.46900009999999 24.293001 73.36200009999999 Q24.293001 72.2938001 24.293411 69.44609009999999 Q24.29358 68.2787441 24.293858 66.5154201 Q24.293999 65.6230101 24.294407 63.0877421 Q24.294786 60.7286571 24.295015 59.2766721 Q24.295362 57.0617751 24.295637 55.1958101 Q24.296335 50.4557951 24.296751 46.6791341 Q24.29726 42.0504601 24.297396 38.4465701 Q24.297552 34.3032071 24.29722 31.4069601 Q24.296446 24.6512191 24.293001 24.542008099999997 Q24.281002 24.186007099999998 24.61 24.027008100000003 L24.61 24.0280001z" stroke="none"/><path fill="none" d="M26.486 21.332 L26.486 21.332z" stroke-width="1.0" stroke-linejoin="round" stroke="#aaaaaa"/><path fill="none" d="M26.486 40.663 L26.486 40.663z" stroke-width="1.0" stroke-linejoin="round" stroke="#757575"/><path fill="none" d="M26.036 0.0 L0.0 19.611 L0.0 71.359 L23.708 75.118004 L50.821 54.436005 L50.821 3.477 L26.036 0.0 L26.036 0.0z" stroke-width="1.0" stroke-linejoin="round" stroke="#757575"/><path fill="url(#id0)" d="M3.3709999920000002 42.981 L3.338 50.611001 L19.747 53.166001 L19.781000000000002 45.536000300000005 L3.37100023 42.981 L3.3709999920000002 42.981z" stroke="none"/><path fill="#757a8a" fill-opacity="1.0" d="M3.25399999 63.809998 L19.664 66.3659978 L19.653 68.2449956 L3.244 65.6890034 L3.25399999 63.8100056293945 L3.25399999 63.809998z" stroke="none"/><path fill="#757a8a" fill-opacity="1.0" d="M3.25399999 67.672 L19.664 70.2270003 L19.653 72.105998 L3.244 69.5510054 L3.25399999 67.6720076293945 L3.25399999 67.672z" stroke="none"/><path fill="#757a8a" fill-opacity="1.0" d="M3.2770000629999996 59.9480018146973 L19.687 62.504001599999995 L19.676000000000002 64.3820037 L3.268 61.8269996 L3.2779999899999996 59.947998 L3.2770000629999996 59.9480018146973z" stroke="none"/><path fill="#757a8a" fill-opacity="1.0" d="M3.301000229 56.086 L19.711000000000002 58.6410003 L19.7 60.520002 L3.291 57.9650016 L3.3009999899999998 56.086 L3.301000229 56.086z" stroke="none"/><path fill="#757a8a" fill-opacity="1.0" d="M3.323999906 52.224 L19.733999200000003 54.7799998 L19.7239992 56.657998 L3.3139992 54.1019984 L3.32399919 52.224 L3.323999906 52.224z" stroke="none"/><path fill="#757a8a" fill-opacity="1.0" d="M3.394999952 39.489 L19.805000200000002 42.0440003 L19.7950002 43.923002 L3.3850002 41.3680016 L3.3950001899999998 39.489 L3.394999952 39.489z" stroke="none"/><path fill="#757a8a" fill-opacity="1.0" d="M3.418999964 35.626 L19.828001 38.180000899999996 L19.818001 40.0590025 L3.408001 37.504002199999995 L3.419000918 35.6260038146973 L3.418999964 35.626z" stroke="none"/><path fill="#757a8a" fill-opacity="1.0" d="M3.441999956 31.765 L19.8509998 34.320000300000004 L19.8409998 36.196999 L3.4309998 33.6419989 L3.441999718 31.765 L3.441999956 31.765z" stroke="none"/><path fill="#757a8a" fill-opacity="1.0" d="M3.466000156 27.902 L19.875 30.4570003 L19.865000000000002 32.336002 L3.455 29.7810016 L3.465999918 27.902001907348602 L3.466000156 27.902z" stroke="none"/><path fill="#757a8a" fill-opacity="1.0" d="M3.466000156 24.04 L19.875 26.5950003 L19.865000000000002 28.474 L3.455 25.9189997 L3.465999918 24.04 L3.466000156 24.04z" stroke="none"/><path fill="#9ccc29" fill-opacity="1.0" d="M4.70399997683716 47.7820018 L8.6009998 48.390003500000006 L8.6009998 46.509003 L4.7039995 45.903004 L4.7039995 47.782005600000005 L4.70399997683716 47.7820018z" stroke-width="1.0" stroke-linejoin="round" stroke="#6d7384"/><path fill="#949ba8" fill-opacity="1.0" d="M78.344 8.0649995 L51.236999999999995 79.524 L27.982 24.128 L53.615001 4.525 L78.344 8.0650004 L78.344 8.0649995z" stroke="none"/><path fill="#757a8a" fill-opacity="1.0" d="M78.66999799999999 8.065 L52.144999899999995 28.328000000000003 L51.492 79.39 L78.539 58.952999999999996 L78.66999799999999 8.065 L78.66999799999999 8.065z" stroke="none"/><path fill="#8e9098" fill-opacity="1.0" d="M28.117 24.427 L51.492000000000004 28.3740005 L51.306 79.555998 L28.1200002594 75.72 L28.117 24.4270019073486 L28.117 24.427z" stroke="none"/><path fill="#9ea4ad" fill-opacity="1.0" d="M52.515999 28.553000500000003 L78.568001 8.5570002 L78.329003 7.9210005 L52.534001 26.964000499999997 Q51.093002999999996 27.379000499999997 50.528999 27.270998499999997 Q50.403874 27.2472835 46.840439 26.751890500000002 Q43.989533 26.3555555 39.080498 25.6771235 Q35.574814 25.192637499999996 31.3888132 24.6152985 Q30.0819304 24.435050500000003 28.8621943 24.266920499999998 Q28.25281165 24.1829205 27.904999 24.135000499999997 L27.904999 24.660998499999998 Q28.2578108 24.720091500000002 28.8757956 24.8236535 Q30.1117651 25.0307765 31.437624200000002 25.253108500000003 Q35.6803744 25.964575500000002 39.230999 26.561373500000002 Q44.20179 27.396876499999998 47.078373 27.883700500000003 Q50.673996 28.492217500000002 50.772999 28.5180005 Q51.062 28.593000500000002 51.129997 28.9690005 L51.129997 79.33600050000001 L51.690999000000005 79.7810005 Q52.198998 78.9940005 52.198998 77.8870005 Q52.198998 76.81880050000001 52.199409 73.9710905 Q52.199578 72.80374450000001 52.199856 71.04041050000001 Q52.199996999999996 70.1480005 52.200405 67.6127405 Q52.200783 65.2536455 52.201012 63.8016655 Q52.201359 61.5867685 52.201634 59.720800499999996 Q52.202332 54.980788499999996 52.202748 51.2041275 Q52.203255 46.575453499999995 52.203392 42.9715645 Q52.203548999999995 38.8282005 52.203216999999995 35.9319525 Q52.202442000000005 29.176210500000003 52.198998 29.0670005 Q52.185997 28.711000499999997 52.514999 28.551001499999998 L52.515999 28.553000500000003z" stroke="none"/><path fill="none" d="M54.393 25.857 L54.393 25.857z" stroke-width="1.0" stroke-linejoin="round" stroke="#aaaaaa"/><path fill="none" d="M54.393 45.188 L54.393 45.188z" stroke-width="1.0" stroke-linejoin="round" stroke="#757575"/><path fill="none" d="M53.941003 4.525 L27.905003 24.134999999999998 L27.905003 75.88300000000001 L51.613003 79.643004 L78.726006 58.961005 L78.726006 8.001000300000001 L53.941003 4.525 L53.941003 4.525z" stroke-width="1.0" stroke-linejoin="round" stroke="#757575"/><path fill="url(#id1)" d="M31.277000946 47.506 L31.244 55.1350016 L47.652 57.691001 L47.687 50.0610003 L31.277000946 47.506 L31.277000946 47.506z" stroke="none"/><path fill="#757a8a" fill-opacity="1.0" d="M31.159999586999998 68.335 L47.569 70.8900003 L47.557998 72.768998 L31.148998 70.21399779999999 L31.15999768 68.335 L31.159999586999998 68.335z" stroke="none"/><path fill="#757a8a" fill-opacity="1.0" d="M31.159999586999998 72.198 L47.569 74.7530003 L47.557998 76.631998 L31.148998 74.07699779999999 L31.15999768 72.198 L31.159999586999998 72.198z" stroke="none"/><path fill="#757a8a" fill-opacity="1.0" d="M31.18399968 64.473 L47.593002 67.0289998 L47.581999999999994 68.906998 L31.173 66.35199779999999 L31.18399968 64.473 L31.18399968 64.473z" stroke="none"/><path fill="#757a8a" fill-opacity="1.0" d="M31.207001136000002 60.6119998146973 L47.616002 63.167000099999996 L47.60499900000001 65.045998 L31.196999 62.4909976 L31.206999229 60.611996 L31.207001136000002 60.6119998146973z" stroke="none"/><path fill="#757a8a" fill-opacity="1.0" d="M31.229999136 56.75 L47.639999 59.3059998 L47.628997 61.1829987 L31.219997 58.6279984 L31.229997229 56.75 L31.229999136 56.75z" stroke="none"/><path fill="#757a8a" fill-opacity="1.0" d="M31.301000229 44.014 L47.710998000000004 46.569000300000006 L47.7 48.448002 L31.291 45.8920022 L31.301000229 44.014003814697304 L31.301000229 44.014z" stroke="none"/><path fill="#757a8a" fill-opacity="1.0" d="M31.324000229 40.152 L47.734002000000004 42.7060009 L47.723 44.5850025 L31.314 42.029998400000004 L31.324000229 40.152 L31.324000229 40.152z" stroke="none"/><path fill="#757a8a" fill-opacity="1.0" d="M31.347999136000002 36.29 L47.757999 38.8450003 L47.746997 40.7229987 L31.337997 38.166998899999996 L31.347997229 36.29 L31.347999136000002 36.29z" stroke="none"/><path fill="#757a8a" fill-opacity="1.0" d="M31.371000044 32.428 L47.780998 34.9830003 L47.769996 36.862002 L31.360996 34.3070016 L31.370996229 32.428 L31.371000044 32.428z" stroke="none"/><path fill="#757a8a" fill-opacity="1.0" d="M31.371000778 28.565 L47.780998999999994 31.1200003 L47.771 32.9999995 L31.362 30.4449992 L31.372000228999998 28.5659994507 L31.371000778 28.565z" stroke="none"/><path fill="#9ccc29" fill-opacity="1.0" d="M32.609 52.306999600000005 L36.506998800000005 52.913998 L36.506998800000005 51.033997 L32.609 50.427998 L32.609 52.306999600000005 L32.609 52.306999600000005z" stroke-width="1.0" stroke-linejoin="round" stroke="#6d7384"/></g><g transform="translate(377.9865000000001 272.0)"><path fill="#949ba8" fill-opacity="1.0" d="M50.43800002 3.54 L23.33200102 74.999 L0.07700002 19.603 L25.70900002 0.0 L50.43800002 3.54 L50.43800002 3.54z" stroke="none"/><path fill="#757a8a" fill-opacity="1.0" d="M50.764999 3.54 L24.238000399999997 23.802001 L23.586 74.86500000000001 L50.633003 54.427997 L50.764999 3.54 L50.764999 3.54z" stroke="none"/><path fill="#8e9098" fill-opacity="1.0" d="M0.21200001 19.902 L23.58600001 23.849000500000002 L23.40100101 75.031997 L0.2149999714 71.196 L0.21200001 19.902 L0.21200001 19.902z" stroke="none"/><path fill="#9ea4ad" fill-opacity="1.0" d="M24.61 24.0280001 L50.662 4.032 L50.424 3.3960001 L24.629 22.4390001 Q23.188 22.8540001 22.623 22.7459981 Q22.4982 22.7222771 18.935015 22.227045099999998 Q16.085445 21.8309961 11.175375 21.1526261 Q7.67229 20.6686441 3.483797 20.091140099999997 Q2.1758516 19.9108071 0.9571934 19.7428781 Q0.34781253 19.6589071 0.0 19.6110001 Q0.35281253 20.1950931 0.97079694 20.298655099999998 Q2.2067657 20.5057761 3.5326252 20.728110100000002 Q7.7753754 21.4395771 11.326 22.0363751 Q16.296791 22.8718761 19.173374 23.358704099999997 Q22.768997 23.967218099999997 22.868 23.993000100000003 Q23.156 24.0680001 23.225 24.444000099999997 L23.225 74.8110001 L23.786001 75.2560001 Q24.293001 74.46900009999999 24.293001 73.36200009999999 Q24.293001 72.2938001 24.293411 69.44609009999999 Q24.29358 68.2787441 24.293858 66.5154201 Q24.293999 65.6230101 24.294407 63.0877421 Q24.294786 60.7286571 24.295015 59.2766721 Q24.295362 57.0617751 24.295637 55.1958101 Q24.296335 50.4557951 24.296751 46.6791341 Q24.29726 42.0504601 24.297396 38.4465701 Q24.297552 34.3032071 24.29722 31.4069601 Q24.296446 24.6512191 24.293001 24.542008099999997 Q24.281002 24.186007099999998 24.61 24.027008100000003 L24.61 24.0280001z" stroke="none"/><path fill="none" d="M26.486 21.332 L26.486 21.332z" stroke-width="1.0" stroke-linejoin="round" stroke="#aaaaaa"/><path fill="none" d="M26.486 40.663 L26.486 40.663z" stroke-width="1.0" stroke-linejoin="round" stroke="#757575"/><path fill="none" d="M26.036 0.0 L0.0 19.611 L0.0 71.359 L23.708 75.118004 L50.821 54.436005 L50.821 3.477 L26.036 0.0 L26.036 0.0z" stroke-width="1.0" stroke-linejoin="round" stroke="#757575"/><path fill="url(#id2)" d="M3.3709999920000002 42.981 L3.338 50.611001 L19.747 53.166001 L19.781000000000002 45.536000300000005 L3.37100023 42.981 L3.3709999920000002 42.981z" stroke="none"/><path fill="#757a8a" fill-opacity="1.0" d="M3.25399999 63.809998 L19.664 66.3659978 L19.653 68.2449956 L3.244 65.6890034 L3.25399999 63.8100056293945 L3.25399999 63.809998z" stroke="none"/><path fill="#757a8a" fill-opacity="1.0" d="M3.25399999 67.672 L19.664 70.2270003 L19.653 72.105998 L3.244 69.5510054 L3.25399999 67.6720076293945 L3.25399999 67.672z" stroke="none"/><path fill="#757a8a" fill-opacity="1.0" d="M3.2770000629999996 59.9480018146973 L19.687 62.504001599999995 L19.676000000000002 64.3820037 L3.268 61.8269996 L3.2779999899999996 59.947998 L3.2770000629999996 59.9480018146973z" stroke="none"/><path fill="#757a8a" fill-opacity="1.0" d="M3.301000229 56.086 L19.711000000000002 58.6410003 L19.7 60.520002 L3.291 57.9650016 L3.3009999899999998 56.086 L3.301000229 56.086z" stroke="none"/><path fill="#757a8a" fill-opacity="1.0" d="M3.323999906 52.224 L19.733999200000003 54.7799998 L19.7239992 56.657998 L3.3139992 54.1019984 L3.32399919 52.224 L3.323999906 52.224z" stroke="none"/><path fill="#757a8a" fill-opacity="1.0" d="M3.394999952 39.489 L19.805000200000002 42.0440003 L19.7950002 43.923002 L3.3850002 41.3680016 L3.3950001899999998 39.489 L3.394999952 39.489z" stroke="none"/><path fill="#757a8a" fill-opacity="1.0" d="M3.418999964 35.626 L19.828001 38.180000899999996 L19.818001 40.0590025 L3.408001 37.504002199999995 L3.419000918 35.6260038146973 L3.418999964 35.626z" stroke="none"/><path fill="#757a8a" fill-opacity="1.0" d="M3.441999956 31.765 L19.8509998 34.320000300000004 L19.8409998 36.196999 L3.4309998 33.6419989 L3.441999718 31.765 L3.441999956 31.765z" stroke="none"/><path fill="#757a8a" fill-opacity="1.0" d="M3.466000156 27.902 L19.875 30.4570003 L19.865000000000002 32.336002 L3.455 29.7810016 L3.465999918 27.902001907348602 L3.466000156 27.902z" stroke="none"/><path fill="#757a8a" fill-opacity="1.0" d="M3.466000156 24.04 L19.875 26.5950003 L19.865000000000002 28.474 L3.455 25.9189997 L3.465999918 24.04 L3.466000156 24.04z" stroke="none"/><path fill="#9ccc29" fill-opacity="1.0" d="M4.70399997683716 47.7820018 L8.6009998 48.390003500000006 L8.6009998 46.509003 L4.7039995 45.903004 L4.7039995 47.782005600000005 L4.70399997683716 47.7820018z" stroke-width="1.0" stroke-linejoin="round" stroke="#6d7384"/><path fill="#949ba8" fill-opacity="1.0" d="M78.344 8.0649995 L51.236999999999995 79.524 L27.982 24.128 L53.615001 4.525 L78.344 8.0650004 L78.344 8.0649995z" stroke="none"/><path fill="#757a8a" fill-opacity="1.0" d="M78.66999799999999 8.065 L52.144999899999995 28.328000000000003 L51.492 79.39 L78.539 58.952999999999996 L78.66999799999999 8.065 L78.66999799999999 8.065z" stroke="none"/><path fill="#8e9098" fill-opacity="1.0" d="M28.117 24.427 L51.492000000000004 28.3740005 L51.306 79.555998 L28.1200002594 75.72 L28.117 24.4270019073486 L28.117 24.427z" stroke="none"/><path fill="#9ea4ad" fill-opacity="1.0" d="M52.515999 28.553000500000003 L78.568001 8.5570002 L78.329003 7.9210005 L52.534001 26.964000499999997 Q51.093002999999996 27.379000499999997 50.528999 27.270998499999997 Q50.403874 27.2472835 46.840439 26.751890500000002 Q43.989533 26.3555555 39.080498 25.6771235 Q35.574814 25.192637499999996 31.3888132 24.6152985 Q30.0819304 24.435050500000003 28.8621943 24.266920499999998 Q28.25281165 24.1829205 27.904999 24.135000499999997 L27.904999 24.660998499999998 Q28.2578108 24.720091500000002 28.8757956 24.8236535 Q30.1117651 25.0307765 31.437624200000002 25.253108500000003 Q35.6803744 25.964575500000002 39.230999 26.561373500000002 Q44.20179 27.396876499999998 47.078373 27.883700500000003 Q50.673996 28.492217500000002 50.772999 28.5180005 Q51.062 28.593000500000002 51.129997 28.9690005 L51.129997 79.33600050000001 L51.690999000000005 79.7810005 Q52.198998 78.9940005 52.198998 77.8870005 Q52.198998 76.81880050000001 52.199409 73.9710905 Q52.199578 72.80374450000001 52.199856 71.04041050000001 Q52.199996999999996 70.1480005 52.200405 67.6127405 Q52.200783 65.2536455 52.201012 63.8016655 Q52.201359 61.5867685 52.201634 59.720800499999996 Q52.202332 54.980788499999996 52.202748 51.2041275 Q52.203255 46.575453499999995 52.203392 42.9715645 Q52.203548999999995 38.8282005 52.203216999999995 35.9319525 Q52.202442000000005 29.176210500000003 52.198998 29.0670005 Q52.185997 28.711000499999997 52.514999 28.551001499999998 L52.515999 28.553000500000003z" stroke="none"/><path fill="none" d="M54.393 25.857 L54.393 25.857z" stroke-width="1.0" stroke-linejoin="round" stroke="#aaaaaa"/><path fill="none" d="M54.393 45.188 L54.393 45.188z" stroke-width="1.0" stroke-linejoin="round" stroke="#757575"/><path fill="none" d="M53.941003 4.525 L27.905003 24.134999999999998 L27.905003 75.88300000000001 L51.613003 79.643004 L78.726006 58.961005 L78.726006 8.001000300000001 L53.941003 4.525 L53.941003 4.525z" stroke-width="1.0" stroke-linejoin="round" stroke="#757575"/><path fill="url(#id3)" d="M31.277000946 47.506 L31.244 55.1350016 L47.652 57.691001 L47.687 50.0610003 L31.277000946 47.506 L31.277000946 47.506z" stroke="none"/><path fill="#757a8a" fill-opacity="1.0" d="M31.159999586999998 68.335 L47.569 70.8900003 L47.557998 72.768998 L31.148998 70.21399779999999 L31.15999768 68.335 L31.159999586999998 68.335z" stroke="none"/><path fill="#757a8a" fill-opacity="1.0" d="M31.159999586999998 72.198 L47.569 74.7530003 L47.557998 76.631998 L31.148998 74.07699779999999 L31.15999768 72.198 L31.159999586999998 72.198z" stroke="none"/><path fill="#757a8a" fill-opacity="1.0" d="M31.18399968 64.473 L47.593002 67.0289998 L47.581999999999994 68.906998 L31.173 66.35199779999999 L31.18399968 64.473 L31.18399968 64.473z" stroke="none"/><path fill="#757a8a" fill-opacity="1.0" d="M31.207001136000002 60.6119998146973 L47.616002 63.167000099999996 L47.60499900000001 65.045998 L31.196999 62.4909976 L31.206999229 60.611996 L31.207001136000002 60.6119998146973z" stroke="none"/><path fill="#757a8a" fill-opacity="1.0" d="M31.229999136 56.75 L47.639999 59.3059998 L47.628997 61.1829987 L31.219997 58.6279984 L31.229997229 56.75 L31.229999136 56.75z" stroke="none"/><path fill="#757a8a" fill-opacity="1.0" d="M31.301000229 44.014 L47.710998000000004 46.569000300000006 L47.7 48.448002 L31.291 45.8920022 L31.301000229 44.014003814697304 L31.301000229 44.014z" stroke="none"/><path fill="#757a8a" fill-opacity="1.0" d="M31.324000229 40.152 L47.734002000000004 42.7060009 L47.723 44.5850025 L31.314 42.029998400000004 L31.324000229 40.152 L31.324000229 40.152z" stroke="none"/><path fill="#757a8a" fill-opacity="1.0" d="M31.347999136000002 36.29 L47.757999 38.8450003 L47.746997 40.7229987 L31.337997 38.166998899999996 L31.347997229 36.29 L31.347999136000002 36.29z" stroke="none"/><path fill="#757a8a" fill-opacity="1.0" d="M31.371000044 32.428 L47.780998 34.9830003 L47.769996 36.862002 L31.360996 34.3070016 L31.370996229 32.428 L31.371000044 32.428z" stroke="none"/><path fill="#757a8a" fill-opacity="1.0" d="M31.371000778 28.565 L47.780998999999994 31.1200003 L47.771 32.9999995 L31.362 30.4449992 L31.372000228999998 28.5659994507 L31.371000778 28.565z" stroke="none"/><path fill="#9ccc29" fill-opacity="1.0" d="M32.609 52.306999600000005 L36.506998800000005 52.913998 L36.506998800000005 51.033997 L32.609 50.427998 L32.609 52.306999600000005 L32.609 52.306999600000005z" stroke-width="1.0" stroke-linejoin="round" stroke="#6d7384"/></g><g transform="translate(377.9865000000001 405.0)"><path fill="#949ba8" fill-opacity="1.0" d="M50.43800002 3.54 L23.33200102 74.999 L0.07700002 19.603 L25.70900002 0.0 L50.43800002 3.54 L50.43800002 3.54z" stroke="none"/><path fill="#757a8a" fill-opacity="1.0" d="M50.764999 3.54 L24.238000399999997 23.802001 L23.586 74.86500000000001 L50.633003 54.427997 L50.764999 3.54 L50.764999 3.54z" stroke="none"/><path fill="#8e9098" fill-opacity="1.0" d="M0.21200001 19.902 L23.58600001 23.849000500000002 L23.40100101 75.031997 L0.2149999714 71.196 L0.21200001 19.902 L0.21200001 19.902z" stroke="none"/><path fill="#9ea4ad" fill-opacity="1.0" d="M24.61 24.0280001 L50.662 4.032 L50.424 3.3960001 L24.629 22.4390001 Q23.188 22.8540001 22.623 22.7459981 Q22.4982 22.7222771 18.935015 22.227045099999998 Q16.085445 21.8309961 11.175375 21.1526261 Q7.67229 20.6686441 3.483797 20.091140099999997 Q2.1758516 19.9108071 0.9571934 19.7428781 Q0.34781253 19.6589071 0.0 19.6110001 Q0.35281253 20.1950931 0.97079694 20.298655099999998 Q2.2067657 20.5057761 3.5326252 20.728110100000002 Q7.7753754 21.4395771 11.326 22.0363751 Q16.296791 22.8718761 19.173374 23.358704099999997 Q22.768997 23.967218099999997 22.868 23.993000100000003 Q23.156 24.0680001 23.225 24.444000099999997 L23.225 74.8110001 L23.786001 75.2560001 Q24.293001 74.46900009999999 24.293001 73.36200009999999 Q24.293001 72.2938001 24.293411 69.44609009999999 Q24.29358 68.2787441 24.293858 66.5154201 Q24.293999 65.6230101 24.294407 63.0877421 Q24.294786 60.7286571 24.295015 59.2766721 Q24.295362 57.0617751 24.295637 55.1958101 Q24.296335 50.4557951 24.296751 46.6791341 Q24.29726 42.0504601 24.297396 38.4465701 Q24.297552 34.3032071 24.29722 31.4069601 Q24.296446 24.6512191 24.293001 24.542008099999997 Q24.281002 24.186007099999998 24.61 24.027008100000003 L24.61 24.0280001z" stroke="none"/><path fill="none" d="M26.486 21.332 L26.486 21.332z" stroke-width="1.0" stroke-linejoin="round" stroke="#aaaaaa"/><path fill="none" d="M26.486 40.663 L26.486 40.663z" stroke-width="1.0" stroke-linejoin="round" stroke="#757575"/><path fill="none" d="M26.036 0.0 L0.0 19.611 L0.0 71.359 L23.708 75.118004 L50.821 54.436005 L50.821 3.477 L26.036 0.0 L26.036 0.0z" stroke-width="1.0" stroke-linejoin="round" stroke="#757575"/><path fill="url(#id4)" d="M3.3709999920000002 42.981 L3.338 50.611001 L19.747 53.166001 L19.781000000000002 45.536000300000005 L3.37100023 42.981 L3.3709999920000002 42.981z" stroke="none"/><path fill="#757a8a" fill-opacity="1.0" d="M3.25399999 63.809998 L19.664 66.3659978 L19.653 68.2449956 L3.244 65.6890034 L3.25399999 63.8100056293945 L3.25399999 63.809998z" stroke="none"/><path fill="#757a8a" fill-opacity="1.0" d="M3.25399999 67.672 L19.664 70.2270003 L19.653 72.105998 L3.244 69.5510054 L3.25399999 67.6720076293945 L3.25399999 67.672z" stroke="none"/><path fill="#757a8a" fill-opacity="1.0" d="M3.2770000629999996 59.9480018146973 L19.687 62.504001599999995 L19.676000000000002 64.3820037 L3.268 61.8269996 L3.2779999899999996 59.947998 L3.2770000629999996 59.9480018146973z" stroke="none"/><path fill="#757a8a" fill-opacity="1.0" d="M3.301000229 56.086 L19.711000000000002 58.6410003 L19.7 60.520002 L3.291 57.9650016 L3.3009999899999998 56.086 L3.301000229 56.086z" stroke="none"/><path fill="#757a8a" fill-opacity="1.0" d="M3.323999906 52.224 L19.733999200000003 54.7799998 L19.7239992 56.657998 L3.3139992 54.1019984 L3.32399919 52.224 L3.323999906 52.224z" stroke="none"/><path fill="#757a8a" fill-opacity="1.0" d="M3.394999952 39.489 L19.805000200000002 42.0440003 L19.7950002 43.923002 L3.3850002 41.3680016 L3.3950001899999998 39.489 L3.394999952 39.489z" stroke="none"/><path fill="#757a8a" fill-opacity="1.0" d="M3.418999964 35.626 L19.828001 38.180000899999996 L19.818001 40.0590025 L3.408001 37.504002199999995 L3.419000918 35.6260038146973 L3.418999964 35.626z" stroke="none"/><path fill="#757a8a" fill-opacity="1.0" d="M3.441999956 31.765 L19.8509998 34.320000300000004 L19.8409998 36.196999 L3.4309998 33.6419989 L3.441999718 31.765 L3.441999956 31.765z" stroke="none"/><path fill="#757a8a" fill-opacity="1.0" d="M3.466000156 27.902 L19.875 30.4570003 L19.865000000000002 32.336002 L3.455 29.7810016 L3.465999918 27.902001907348602 L3.466000156 27.902z" stroke="none"/><path fill="#757a8a" fill-opacity="1.0" d="M3.466000156 24.04 L19.875 26.5950003 L19.865000000000002 28.474 L3.455 25.9189997 L3.465999918 24.04 L3.466000156 24.04z" stroke="none"/><path fill="#9ccc29" fill-opacity="1.0" d="M4.70399997683716 47.7820018 L8.6009998 48.390003500000006 L8.6009998 46.509003 L4.7039995 45.903004 L4.7039995 47.782005600000005 L4.70399997683716 47.7820018z" stroke-width="1.0" stroke-linejoin="round" stroke="#6d7384"/><path fill="#949ba8" fill-opacity="1.0" d="M78.344 8.0649995 L51.236999999999995 79.524 L27.982 24.128 L53.615001 4.525 L78.344 8.0650004 L78.344 8.0649995z" stroke="none"/><path fill="#757a8a" fill-opacity="1.0" d="M78.66999799999999 8.065 L52.144999899999995 28.328000000000003 L51.492 79.39 L78.539 58.952999999999996 L78.66999799999999 8.065 L78.66999799999999 8.065z" stroke="none"/><path fill="#8e9098" fill-opacity="1.0" d="M28.117 24.427 L51.492000000000004 28.3740005 L51.306 79.555998 L28.1200002594 75.72 L28.117 24.4270019073486 L28.117 24.427z" stroke="none"/><path fill="#9ea4ad" fill-opacity="1.0" d="M52.515999 28.553000500000003 L78.568001 8.5570002 L78.329003 7.9210005 L52.534001 26.964000499999997 Q51.093002999999996 27.379000499999997 50.528999 27.270998499999997 Q50.403874 27.2472835 46.840439 26.751890500000002 Q43.989533 26.3555555 39.080498 25.6771235 Q35.574814 25.192637499999996 31.3888132 24.6152985 Q30.0819304 24.435050500000003 28.8621943 24.266920499999998 Q28.25281165 24.1829205 27.904999 24.135000499999997 L27.904999 24.660998499999998 Q28.2578108 24.720091500000002 28.8757956 24.8236535 Q30.1117651 25.0307765 31.437624200000002 25.253108500000003 Q35.6803744 25.964575500000002 39.230999 26.561373500000002 Q44.20179 27.396876499999998 47.078373 27.883700500000003 Q50.673996 28.492217500000002 50.772999 28.5180005 Q51.062 28.593000500000002 51.129997 28.9690005 L51.129997 79.33600050000001 L51.690999000000005 79.7810005 Q52.198998 78.9940005 52.198998 77.8870005 Q52.198998 76.81880050000001 52.199409 73.9710905 Q52.199578 72.80374450000001 52.199856 71.04041050000001 Q52.199996999999996 70.1480005 52.200405 67.6127405 Q52.200783 65.2536455 52.201012 63.8016655 Q52.201359 61.5867685 52.201634 59.720800499999996 Q52.202332 54.980788499999996 52.202748 51.2041275 Q52.203255 46.575453499999995 52.203392 42.9715645 Q52.203548999999995 38.8282005 52.203216999999995 35.9319525 Q52.202442000000005 29.176210500000003 52.198998 29.0670005 Q52.185997 28.711000499999997 52.514999 28.551001499999998 L52.515999 28.553000500000003z" stroke="none"/><path fill="none" d="M54.393 25.857 L54.393 25.857z" stroke-width="1.0" stroke-linejoin="round" stroke="#aaaaaa"/><path fill="none" d="M54.393 45.188 L54.393 45.188z" stroke-width="1.0" stroke-linejoin="round" stroke="#757575"/><path fill="none" d="M53.941003 4.525 L27.905003 24.134999999999998 L27.905003 75.88300000000001 L51.613003 79.643004 L78.726006 58.961005 L78.726006 8.001000300000001 L53.941003 4.525 L53.941003 4.525z" stroke-width="1.0" stroke-linejoin="round" stroke="#757575"/><path fill="url(#id5)" d="M31.277000946 47.506 L31.244 55.1350016 L47.652 57.691001 L47.687 50.0610003 L31.277000946 47.506 L31.277000946 47.506z" stroke="none"/><path fill="#757a8a" fill-opacity="1.0" d="M31.159999586999998 68.335 L47.569 70.8900003 L47.557998 72.768998 L31.148998 70.21399779999999 L31.15999768 68.335 L31.159999586999998 68.335z" stroke="none"/><path fill="#757a8a" fill-opacity="1.0" d="M31.159999586999998 72.198 L47.569 74.7530003 L47.557998 76.631998 L31.148998 74.07699779999999 L31.15999768 72.198 L31.159999586999998 72.198z" stroke="none"/><path fill="#757a8a" fill-opacity="1.0" d="M31.18399968 64.473 L47.593002 67.0289998 L47.581999999999994 68.906998 L31.173 66.35199779999999 L31.18399968 64.473 L31.18399968 64.473z" stroke="none"/><path fill="#757a8a" fill-opacity="1.0" d="M31.207001136000002 60.6119998146973 L47.616002 63.167000099999996 L47.60499900000001 65.045998 L31.196999 62.4909976 L31.206999229 60.611996 L31.207001136000002 60.6119998146973z" stroke="none"/><path fill="#757a8a" fill-opacity="1.0" d="M31.229999136 56.75 L47.639999 59.3059998 L47.628997 61.1829987 L31.219997 58.6279984 L31.229997229 56.75 L31.229999136 56.75z" stroke="none"/><path fill="#757a8a" fill-opacity="1.0" d="M31.301000229 44.014 L47.710998000000004 46.569000300000006 L47.7 48.448002 L31.291 45.8920022 L31.301000229 44.014003814697304 L31.301000229 44.014z" stroke="none"/><path fill="#757a8a" fill-opacity="1.0" d="M31.324000229 40.152 L47.734002000000004 42.7060009 L47.723 44.5850025 L31.314 42.029998400000004 L31.324000229 40.152 L31.324000229 40.152z" stroke="none"/><path fill="#757a8a" fill-opacity="1.0" d="M31.347999136000002 36.29 L47.757999 38.8450003 L47.746997 40.7229987 L31.337997 38.166998899999996 L31.347997229 36.29 L31.347999136000002 36.29z" stroke="none"/><path fill="#757a8a" fill-opacity="1.0" d="M31.371000044 32.428 L47.780998 34.9830003 L47.769996 36.862002 L31.360996 34.3070016 L31.370996229 32.428 L31.371000044 32.428z" stroke="none"/><path fill="#757a8a" fill-opacity="1.0" d="M31.371000778 28.565 L47.780998999999994 31.1200003 L47.771 32.9999995 L31.362 30.4449992 L31.372000228999998 28.5659994507 L31.371000778 28.565z" stroke="none"/><path fill="#9ccc29" fill-opacity="1.0" d="M32.609 52.306999600000005 L36.506998800000005 52.913998 L36.506998800000005 51.033997 L32.609 50.427998 L32.609 52.306999600000005 L32.609 52.306999600000005z" stroke-width="1.0" stroke-linejoin="round" stroke="#6d7384"/></g><path fill="none" d="M456.71350000000007 245.73225000000002 L478.5731067925733 286.6993082686453 L485.74461445204383 300.1394206616725 L521.7505 367.618" stroke-width="1.0" stroke-linejoin="round" stroke="#000000"/><path fill="none" d="M521.7505 367.618 L456.71350000000007 311.8215" stroke-width="1.0" stroke-linejoin="round" stroke="#000000"/><path fill="none" d="M521.7505 367.618 L456.71350000000007 444.8215" stroke-width="1.0" stroke-linejoin="round" stroke="#000000"/><path fill="none" d="M417.3500000000001 351.64300000000003 L417.3500000000001 373.0446596388152 L417.3500000000001 405.0" stroke-dasharray="7.0 7.0" stroke-width="7.0" stroke-linejoin="round" stroke="#000000"/><g transform="translate(504.95559865716655 191.93049999999997)"><path fill="#ffffff" fill-opacity="1.0" d="M80.4311452826428 29.144573806024063 Q83.1969742768878 25.76560801778818 83.1969742768878 21.404443272129345 Q83.1969742768878 16.343427405976726 79.61710593430328 12.763846821358278 Q76.03748623695158 9.184507897555992 70.97703471166446 9.184507897555992 Q70.96307006901017 9.185206339221205 70.94909704505591 9.185904361821418 Q67.40109161123843 3.1206369411083976 60.404024783664255 3.1206369411083976 Q56.5281107662124 3.1206369411083976 53.35954214832207 5.362634686443358 Q49.71962318824584 0.0 43.24471414335184 0.0 Q36.30357433367796 0.0 32.74154838187299 5.998217020852536 Q29.33058558407035 3.120637639550063 24.87290458157901 3.120637639550063 Q16.1649797511647 3.120637639550063 13.329060738932208 11.359455243030466 Q12.606173615436356 11.26307029323102 12.048118724930863 11.26307029323102 Q2.6009967612546396 11.26307029323102 2.6009967612546396 20.71158914023767 Q2.6009967612546396 23.191565517277457 3.831650975360621 25.359019980567524 Q0.0 28.98840644033234 0.0 34.22922912877749 Q0.0 39.291531524477435 3.578815092553376 42.87034801391414 Q7.157630185106752 46.44916450335085 12.219935374573355 46.44916450335085 Q12.857686649729688 46.44916450335085 13.619612471660975 46.36116085353396 Q17.213635433032707 52.16940174144846 24.006836916714413 52.16940174144846 Q28.728804054672505 52.16940174144846 32.24286103291063 48.95796696479732 Q35.52555641578016 56.06810311666956 43.331320909838304 56.06810311666956 Q51.22737575172525 56.06810311666956 54.47425923665262 48.846219092129836 Q58.00980866181269 52.16940732898178 62.83041531926554 52.16940732898178 Q70.25222128605594 52.16940732898178 73.67721438002938 45.55935680628564 Q74.1004700291487 45.58450349999999 74.0990703520516 45.58450349999999 Q83.54479822616406 45.58450349999999 83.54479822616406 36.13598465299334 Q83.54479822616406 31.95845558683574 80.4311452826428 29.143186700876946 L80.4311452826428 29.144573806024063z" stroke-width="1.0" stroke-linejoin="round" stroke="#000000"/><path fill="#ffffff" fill-opacity="1.0" d="M13.608436706575896 46.37373559727446 Q11.788297028588154 43.429782187020095 11.788297028588154 39.950866323348855 Q11.788297028588154 39.3809366114644 11.838585177704351 38.82358259320112" stroke-width="1.0" stroke-linejoin="round" stroke="#000000"/><path fill="#ffffff" fill-opacity="1.0" d="M54.815100166160086 49.17308839456636 Q52.94074529491815 47.54580871515233 51.84951545878073 45.31489523904431" stroke-width="1.0" stroke-linejoin="round" stroke="#000000"/><path fill="#ffffff" fill-opacity="1.0" d="M24.87290458157901 3.1206373601733968 Q34.10988500455915 3.1206373601733968 36.62907469045068 11.992243391713792" stroke-width="1.0" stroke-linejoin="round" stroke="#000000"/><path fill="#ffffff" fill-opacity="1.0" d="M80.43254356285655 29.144573806024063 Q78.29762628391713 31.751034476425666 75.14813252696877 32.893808664889505" stroke-width="1.0" stroke-linejoin="round" stroke="#000000"/><g transform="translate(11.75337572408312 11.021409956649022)"><clipPath id="id6"><path d="M0 0 L61.925236711587836 0 L61.925236711587836 36.77295473922204 L0 36.77295473922204z"/></clipPath><text font-size="12" clip-path="url(#id6)" text-decoration="none" fill="#000000" font-family="Arial,Arial" font-style="normal" font-weight="normal"><tspan x="10.0" xml:space="preserve" y="22.88647736961102" textLength="41.0">Internet</tspan></text></g></g><path fill="none" d="M546.7272993285834 247.99999999999997 L521.7505 367.618" stroke-width="1.0" stroke-linejoin="round" stroke="#000000"/><g transform="translate(509.0 380.609)"><clipPath id="id7"><path d="M0 0 L92.0 0 L92.0 17.0 L0 17.0z"/></clipPath><text font-size="12" clip-path="url(#id7)" text-decoration="none" fill="#000000" font-family="Arial,Arial" font-style="normal" font-weight="normal"><tspan x="2.0" xml:space="preserve" y="14.0" textLength="82.0">Switch / Router</tspan></text></g><g transform="translate(648.501 341.0)"><path fill="#949ba8" fill-opacity="1.0" d="M88.54699498000001 12.654 L56.85199598 36.234 L0.09399998 23.14 L33.02099998 0.0 L88.54599998 12.654 L88.54699498000001 12.654z" stroke="none"/><path fill="#828999" fill-opacity="1.0" d="M-0.15 23.494 L56.852000000000004 36.703 L56.852000000000004 48.584 L-0.15 35.175999 L-0.15 23.494 L-0.15 23.494z" stroke="none"/><path fill="#757a8a" fill-opacity="1.0" d="M88.932 12.6540004044 L56.223 35.754002 L56.8520016 48.318 L88.99799999999999 24.344 L88.932 12.653 L88.932 12.6540004044z" stroke="none"/><path fill="#a8acb2" fill-opacity="1.0" d="M58.061 36.835 L88.813 13.2339994 L88.532005 12.482999 L56.813 35.126999999999995 Q56.38 35.448999 55.714 35.322998999999996 Q55.56655 35.295503 46.8277 33.386903000000004 Q43.09157 32.570916 37.897217 31.435598 Q33.358913 30.443669 27.696125 29.205499 Q22.93373 28.164201 17.515142 26.979153 Q13.231842 26.042392999999997 8.644984 25.039093 Q5.446259 24.339424 2.3763654 23.667866 Q0.8638282 23.336987 0.0 23.148001 L0.0 23.771 Q0.8697343 23.973141 2.3924356 24.327061 Q5.4395065 25.035288 8.702672 25.793796999999998 Q13.274599 26.856522 17.630104 27.869042 Q23.061964 29.131778999999998 27.874125 30.250626999999998 Q33.54539 31.569215 38.134132 32.636384 Q43.37783 33.855867 47.109516 34.724141 Q55.886784 36.766408999999996 56.004 36.797002 Q56.344 36.885003 56.425003 37.328 L56.425003 48.424999 L56.852 48.319999 Q57.686 48.160001 57.686 46.856999 Q57.686 37.446 57.686 37.446 Q57.671 37.024999 58.061 36.836999 L58.061 36.835z" stroke="none"/><path fill="none" d="M33.404 0.0 L0.0 23.148 L0.0 34.954002 L56.996 48.618004 L88.998 24.345003 L88.998 12.578 L33.404 0.0 L33.404 0.0z" stroke-width="1.0" stroke-linejoin="round" stroke="#757575"/><path fill="none" d="M60.275 33.655 L60.275 33.655z" stroke-width="1.0" stroke-linejoin="round" stroke="#aaaaaa"/><path fill="#9ccc29" fill-opacity="1.0" d="M43.961 36.44 L43.961 39.3779997 L53.788999 41.6909995 L53.788999 38.717999899999995 L43.961 36.4409994507 L43.961 36.44z" stroke-width="1.0" stroke-linejoin="round" stroke="#6d7384"/><path fill="#6d7384" fill-opacity="1.0" d="M1.938 32.4339985 L54.215 44.730999 L54.215 42.897 L1.938 30.782 L1.938 32.4339985 L1.938 32.4339985z" stroke="none"/><path fill="#6d7384" fill-opacity="1.0" d="M42.086000000000006 37.091999 L1.938 27.788 L1.938 29.4400004 L42.086000000000006 38.885002 L42.086000000000006 37.092003 L42.086000000000006 37.091999z" stroke="none"/></g><g transform="translate(648.501 328.49099999999993)"><path fill="#949ba8" fill-opacity="1.0" d="M88.54699498000001 12.654 L56.85199598 36.234 L0.09399998 23.14 L33.02099998 0.0 L88.54599998 12.654 L88.54699498000001 12.654z" stroke="none"/><path fill="#828999" fill-opacity="1.0" d="M-0.15 23.494 L56.852000000000004 36.703 L56.852000000000004 48.584 L-0.15 35.175999 L-0.15 23.494 L-0.15 23.494z" stroke="none"/><path fill="#757a8a" fill-opacity="1.0" d="M88.932 12.6540004044 L56.223 35.754002 L56.8520016 48.318 L88.99799999999999 24.344 L88.932 12.653 L88.932 12.6540004044z" stroke="none"/><path fill="#a8acb2" fill-opacity="1.0" d="M58.061 36.835 L88.813 13.2339994 L88.532005 12.482999 L56.813 35.126999999999995 Q56.38 35.448999 55.714 35.322998999999996 Q55.56655 35.295503 46.8277 33.386903000000004 Q43.09157 32.570916 37.897217 31.435598 Q33.358913 30.443669 27.696125 29.205499 Q22.93373 28.164201 17.515142 26.979153 Q13.231842 26.042392999999997 8.644984 25.039093 Q5.446259 24.339424 2.3763654 23.667866 Q0.8638282 23.336987 0.0 23.148001 L0.0 23.771 Q0.8697343 23.973141 2.3924356 24.327061 Q5.4395065 25.035288 8.702672 25.793796999999998 Q13.274599 26.856522 17.630104 27.869042 Q23.061964 29.131778999999998 27.874125 30.250626999999998 Q33.54539 31.569215 38.134132 32.636384 Q43.37783 33.855867 47.109516 34.724141 Q55.886784 36.766408999999996 56.004 36.797002 Q56.344 36.885003 56.425003 37.328 L56.425003 48.424999 L56.852 48.319999 Q57.686 48.160001 57.686 46.856999 Q57.686 37.446 57.686 37.446 Q57.671 37.024999 58.061 36.836999 L58.061 36.835z" stroke="none"/><path fill="none" d="M33.404 0.0 L0.0 23.148 L0.0 34.954002 L56.996 48.618004 L88.998 24.345003 L88.998 12.578 L33.404 0.0 L33.404 0.0z" stroke-width="1.0" stroke-linejoin="round" stroke="#757575"/><path fill="none" d="M60.275 33.655 L60.275 33.655z" stroke-width="1.0" stroke-linejoin="round" stroke="#aaaaaa"/><path fill="#9ccc29" fill-opacity="1.0" d="M43.961 36.44 L43.961 39.3779997 L53.788999 41.6909995 L53.788999 38.717999899999995 L43.961 36.4409994507 L43.961 36.44z" stroke-width="1.0" stroke-linejoin="round" stroke="#6d7384"/><path fill="#6d7384" fill-opacity="1.0" d="M1.938 32.4339985 L54.215 44.730999 L54.215 42.897 L1.938 30.782 L1.938 32.4339985 L1.938 32.4339985z" stroke="none"/><path fill="#6d7384" fill-opacity="1.0" d="M42.086000000000006 37.091999 L1.938 27.788 L1.938 29.4400004 L42.086000000000006 38.885002 L42.086000000000006 37.092003 L42.086000000000006 37.091999z" stroke="none"/></g><g transform="translate(648.501 316.0)"><path fill="#949ba8" fill-opacity="1.0" d="M88.54699498000001 12.654 L56.85199598 36.234 L0.09399998 23.14 L33.02099998 0.0 L88.54599998 12.654 L88.54699498000001 12.654z" stroke="none"/><path fill="#828999" fill-opacity="1.0" d="M-0.15 23.494 L56.852000000000004 36.703 L56.852000000000004 48.584 L-0.15 35.175999 L-0.15 23.494 L-0.15 23.494z" stroke="none"/><path fill="#757a8a" fill-opacity="1.0" d="M88.932 12.6540004044 L56.223 35.754002 L56.8520016 48.318 L88.99799999999999 24.344 L88.932 12.653 L88.932 12.6540004044z" stroke="none"/><path fill="#a8acb2" fill-opacity="1.0" d="M58.061 36.835 L88.813 13.2339994 L88.532005 12.482999 L56.813 35.126999999999995 Q56.38 35.448999 55.714 35.322998999999996 Q55.56655 35.295503 46.8277 33.386903000000004 Q43.09157 32.570916 37.897217 31.435598 Q33.358913 30.443669 27.696125 29.205499 Q22.93373 28.164201 17.515142 26.979153 Q13.231842 26.042392999999997 8.644984 25.039093 Q5.446259 24.339424 2.3763654 23.667866 Q0.8638282 23.336987 0.0 23.148001 L0.0 23.771 Q0.8697343 23.973141 2.3924356 24.327061 Q5.4395065 25.035288 8.702672 25.793796999999998 Q13.274599 26.856522 17.630104 27.869042 Q23.061964 29.131778999999998 27.874125 30.250626999999998 Q33.54539 31.569215 38.134132 32.636384 Q43.37783 33.855867 47.109516 34.724141 Q55.886784 36.766408999999996 56.004 36.797002 Q56.344 36.885003 56.425003 37.328 L56.425003 48.424999 L56.852 48.319999 Q57.686 48.160001 57.686 46.856999 Q57.686 37.446 57.686 37.446 Q57.671 37.024999 58.061 36.836999 L58.061 36.835z" stroke="none"/><path fill="none" d="M33.404 0.0 L0.0 23.148 L0.0 34.954002 L56.996 48.618004 L88.998 24.345003 L88.998 12.578 L33.404 0.0 L33.404 0.0z" stroke-width="1.0" stroke-linejoin="round" stroke="#757575"/><path fill="none" d="M60.275 33.655 L60.275 33.655z" stroke-width="1.0" stroke-linejoin="round" stroke="#aaaaaa"/><path fill="#9ccc29" fill-opacity="1.0" d="M43.961 36.44 L43.961 39.3779997 L53.788999 41.6909995 L53.788999 38.717999899999995 L43.961 36.4409994507 L43.961 36.44z" stroke-width="1.0" stroke-linejoin="round" stroke="#6d7384"/><path fill="#6d7384" fill-opacity="1.0" d="M1.938 32.4339985 L54.215 44.730999 L54.215 42.897 L1.938 30.782 L1.938 32.4339985 L1.938 32.4339985z" stroke="none"/><path fill="#6d7384" fill-opacity="1.0" d="M42.086000000000006 37.091999 L1.938 27.788 L1.938 29.4400004 L42.086000000000006 38.885002 L42.086000000000006 37.092003 L42.086000000000006 37.091999z" stroke="none"/></g><path fill="none" d="M544.0 367.618 L648.501 364.9545" stroke-width="1.0" stroke-linejoin="round" stroke="#000000"/><g transform="translate(516.905 259.53700000000003)"><path fill="#ebddb5" fill-opacity="1.0" d="M38.07125170681535 16.850137761462808 L32.89868949335088 20.305020752112483 L33.13035140998892 40.7672953845408 L38.09499736147666 36.99104183404904 L38.070724265999445 16.850137761462808 L38.07125170681535 16.850137761462808z" stroke="none"/><path fill="#fff0c5" fill-opacity="1.0" d="M7.652245369652618 15.308184720875468 L33.13035395352542 20.326656115805516 L33.13035395352542 40.83959409031723 L7.652244866394238 35.74882504502009 L7.652244866394238 15.308184720875468 L7.652245369652618 15.308184720875468z" stroke="none"/><path fill="#bd3235" fill-opacity="1.0" d="M9.563063628390358 15.921377197081313 L7.652244866394238 15.5451241169137 L7.652244866394238 19.82480950401718 L9.563063628390358 20.206867156115806 L9.563063628390358 15.921377197081313 L9.563063628390358 15.921377197081313z" stroke="none"/><path fill="#a43235" fill-opacity="1.0" d="M24.483913394388335 34.903969871173295 L24.483913394388335 39.11241380880316 L33.13035342582075 40.839592507203214 L33.13035342582075 36.60687146354066 L24.483911381354762 34.903969871173295 L24.483913394388335 34.903969871173295z" stroke="none"/><path fill="#bd3235" fill-opacity="1.0" d="M15.362538301703838 33.10766192951633 L15.362538301703838 37.28919159429284 L23.1736238563513 38.85014221401856 L23.1736238563513 34.64644492710902 L15.362539308220597 33.10765790344924 L15.362538301703838 33.10766192951633z" stroke="none"/><path fill="#a43235" fill-opacity="1.0" d="M14.0522470827677 32.849088156912316 L7.652244866394238 31.588929145310985 L7.652244866394238 35.74829522953318 L14.0522470827677 37.02745345615737 L14.0522470827677 32.849088156912316 L14.0522470827677 32.849088156912316z" stroke="none"/><path fill="#953235" fill-opacity="1.0" d="M38.12032929637069 32.786291037539826 L38.12032929637069 36.99473698044743 L33.13035342582075 40.83959461802189 L33.13035342582075 36.60687774322621 L38.12032929637069 32.78682449144488 L38.12032929637069 32.786291037539826z" stroke="none"/><path fill="#953235" fill-opacity="1.0" d="M38.12032929637069 27.451196841667823 L38.12032929637069 31.65858595043635 L33.13035342582075 35.50291414191716 L33.13035342582075 31.271250090705085 L38.12032929637069 27.451196841667823 L38.12032929637069 27.451196841667823z" stroke="none"/><path fill="#953235" fill-opacity="1.0" d="M38.12032929637069 22.198425531664963 L38.12032929637069 26.406342126264025 L33.13035342582075 30.25119781133121 L33.13035342582075 26.02006104262363 L38.12032929637069 22.19842351863139 L38.12032929637069 22.198425531664963z" stroke="none"/><path fill="#a43235" fill-opacity="1.0" d="M24.483913492173432 24.31663111234243 L24.483913492173432 28.525075049972298 L33.13035342582075 30.251196755921875 L33.13035342582075 26.02006009275523 L24.483913492173432 24.31663111234243 L24.483913492173432 24.31663111234243z" stroke="none"/><path fill="#bd3235" fill-opacity="1.0" d="M15.362538301703838 22.519796716996815 L15.362538301703838 26.702383231424022 L23.1736238563513 28.26333379837928 L23.1736238563513 24.0585837406566 L15.362539308220597 22.519796716996815 L15.362538301703838 22.519796716996815z" stroke="none"/><path fill="#bd3235" fill-opacity="1.0" d="M14.0522470827677 22.262276838897357 L7.652244866394238 21.001590386480125 L7.652244866394238 25.160958581520987 L14.0522470827677 26.440641874290073 L14.0522470827677 22.262276838897357 L14.0522470827677 22.262276838897357z" stroke="none"/><path fill="#9e323a" fill-opacity="1.0" d="M33.487610013921596 15.955150644133537 L28.66016823659787 19.618477137048068 L31.217425428265692 21.57256683751212 L33.519802109502706 22.470720182850812 L38.10238892076465 16.91821208582906 L33.48813930170384 15.955150644133537 L33.487610013921596 15.955150644133537z" stroke="none"/><path fill="#953235" fill-opacity="1.0" d="M38.12032929637069 16.839583280446227 L38.12032929637069 20.986285367987257 L33.13035342582075 24.831141053054438 L33.13035342582075 20.429556942997646 L38.12032929637069 16.839053852611165 L38.12032929637069 16.839583280446227z" stroke="none"/><path fill="#bd3235" fill-opacity="1.0" d="M12.510294833737362 12.085492311954566 L7.654884181292424 15.552511823957612 L9.436414877406843 16.020058001703838 L14.694464455568639 12.37203556158263 L12.510294833737362 12.085492311954566 L12.510294833737362 12.085492311954566z" stroke="none"/><path fill="#b53037" fill-opacity="1.0" d="M24.678636514752732 14.261746122759574 L19.85224961906081 17.923489373278848 L23.407923145934337 19.924017981645658 L27.37098414898185 19.40950672167198 L32.19895574179249 15.734043654633608 L24.678636514752732 14.261219714503396 L24.678636514752732 14.261746122759574z" stroke="none"/><path fill="#b53037" fill-opacity="1.0" d="M15.646971117883364 12.650136306967726 L10.957787435932955 16.145652293219285 L14.761482684582354 18.27546807036986 L18.477051781340908 17.63166784741654 L23.166235990995986 14.123487635143373 L15.646972173292701 12.650136306967726 L15.646971117883364 12.650136306967726z" stroke="none"/><path fill="none" d="M9.034831624878791 14.59894964676548 L9.034831624878791 14.59894964676548z" stroke-width="1.0" stroke-linejoin="round" stroke="#aaaaaa"/><path fill="none" d="M34.39051322897909 19.531932885441197 L34.39051322897909 19.531932885441197z" stroke-width="1.0" stroke-linejoin="round" stroke="#aaaaaa"/><path fill="none" d="M34.39051322897909 25.963597381908855 L34.39051322897909 25.963597381908855z" stroke-width="1.0" stroke-linejoin="round" stroke="#757575"/><path fill="#bd3235" fill-opacity="1.0" d="M28.66016823659787 30.354627926305582 L28.66016823659787 34.69499987796094 L33.13088218589833 35.587349527358356 L33.13088218589833 31.234313507992795 L28.66016823659787 30.354629939339155 L28.66016823659787 30.354627926305582z" stroke="none"/><path fill="#bd3235" fill-opacity="1.0" d="M19.766761462806482 28.603176132428317 L19.766761462806482 32.91821614918964 L27.35040630544397 34.43325730710625 L27.35040630544397 30.097108734222193 L19.766761462806482 28.603176132428317 L19.766761462806482 28.603176132428317z" stroke="none"/><path fill="#bd3235" fill-opacity="1.0" d="M9.563063628390358 26.59367712517662 L7.652244866394238 26.21689562266242 L7.652244866394238 30.497108186729463 L9.563063628390358 30.87863866186452 L9.563063628390358 26.59367712517662 L9.563063628390358 26.59367712517662z" stroke="none"/><path fill="#a43235" fill-opacity="1.0" d="M10.872826984346863 26.85172371306128 L10.872826984346863 31.141435586646352 L18.455942539202105 32.65647516144895 L18.455942539202105 28.34512686100568 L10.872826984346863 26.851721700027706 L10.872826984346863 26.85172371306128z" stroke="none"/><path fill="#bd3235" fill-opacity="1.0" d="M10.872826984346863 16.09288156254329 L10.872826984346863 20.46808202230226 L18.455942539202105 21.983650884887105 L18.455942539202105 17.586287726160133 L10.872826984346863 16.092883575576863 L10.872826984346863 16.09288156254329z" stroke="none"/><path fill="#bd3235" fill-opacity="1.0" d="M19.766761462806482 17.93087692201136 L19.766761462806482 22.244862057140878 L27.35040630544397 23.760958096689293 L27.35040630544397 19.424809523805237 L19.766761462806482 17.931406349846423 L19.766761462806482 17.93087692201136z" stroke="none"/><path fill="#a43235" fill-opacity="1.0" d="M28.66016823659787 19.597368694222105 L28.66016823659787 24.02375554917579 L33.13088218589833 24.91557591079097 L33.13088218589833 20.479161920598422 L28.66016823659787 19.597366681188532 L28.66016823659787 19.597368694222105z" stroke="none"/><path fill="none" d="M12.650136306967728 12.072299695248649 L7.708709793600223 15.508711967100707 L7.708709793600223 35.6923617009281 L33.18312178182575 40.877586715611585 L38.095524010735566 36.991041834049035 L38.095524010735566 16.822697646419172 L12.65013261303505 12.072300701765409 L12.650136306967728 12.072299695248649z" stroke-width="1.0" stroke-linejoin="round" stroke="#aaaaaa"/><path fill="#ff0000" fill-opacity="1.0" d="M11.58469998021471 26.322436556309743 Q7.365171342176201 27.585107178279543 3.880014462414462 25.402383467239233 Q0.368023800272891 23.202855001038927 0.5831134156572932 19.327711178833635 Q0.6796076759869789 17.592574430184236 1.3952427312051532 16.112992387449786 Q1.866275348153484 15.13912661483585 2.814446811077712 13.953764726762708 Q4.490236837327885 11.858765584360714 3.973616077942929 10.911348369718798 Q4.122362567449786 11.021638645380246 4.334318894150159 11.211431323244216 Q4.758230597682504 11.591015095858152 5.074275825865078 11.988525523756753 Q6.085622086392852 13.260557626541074 5.639052010897632 14.23483237027289 Q5.382198623794155 14.792170294154316 5.8038858410680145 15.176183619753429 Q6.2060928405139215 15.542457097520433 6.791888821744009 15.42131035371935 Q8.399801251928245 15.088781478667405 7.767812114859399 12.302906635268043 Q7.735822130166229 12.161985742138802 7.587613635568638 11.515046204114144 Q7.476716499538717 11.030971102438011 7.408430987764233 10.725027988571824 Q7.205692658979083 9.81668677690816 7.082010821951794 9.15481741840975 Q6.753627067068846 7.39751337976174 6.759236567692201 6.167812162349356 Q6.7736867046225235 3.000351962529437 9.052245277347277 1.720316321353373 Q11.209907238283696 0.5088993319088517 12.160294902503118 0.0013850928279539598 Q12.635492428545506 -0.252374771832179 12.679160517546752 -0.26385233411829895 Q12.409239579743732 0.030277028954841412 12.052115445514614 0.4992745264648844 Q11.337867177056378 1.437269627025904 10.901851194925891 2.311610299210417 Q9.506599524403658 5.1095004502008585 11.416890423420142 6.2216380385094885 Q12.953616549268597 7.1151080049175786 13.65561151533038 8.915372480606733 Q14.25334628697465 10.448261138107773 13.910295508542735 11.19314319026181 Q14.710002381793878 7.9562043384125225 16.616892224223577 7.231664245809669 Q16.52757820912453 7.767679998718659 16.54664154026458 8.617284250727247 Q16.584768202544677 10.31649433785843 17.126657044558804 11.884436833356421 Q17.187913530152375 12.059735047097938 17.3254439207882 12.423688207438705 Q17.508103614651617 12.90705301863139 17.576288334834466 13.092111130211942 Q17.91170006048899 14.002401682920071 18.127215174701483 14.74724204640532 Q18.781189543658403 17.007391641778643 18.677578425982823 18.84611470598421 Q18.539142494136307 21.302911335157226 17.066990533130628 23.073515642263473 Q15.286994666043773 25.2143744311539 11.584702091033384 26.3219072685275 L11.58469998021471 26.322436556309743z" stroke="none"/><path fill="#ff0000" fill-opacity="1.0" d="M2.2865444330101123 9.245913703255301 Q2.0213728372212216 9.110557192000279 1.661750390781272 8.864275840220255 Q0.9425055506718383 8.371713664364872 0.47025092802327206 7.817087614773516 Q-1.0409633156392852 6.04228436162211 0.48443299098213055 4.312402496059012 Q2.0098290337512124 2.5779036368125783 2.54426204204876 1.6141826698226904 Q2.811478651738468 1.1323223340850535 2.773615841792492 0.9973617701967032 Q2.9517821304058733 1.179848672443552 3.187798043274692 1.48303154260978 Q3.659829869012329 2.0893969768735285 3.9490779902895143 2.6928767636999593 Q4.874671450671839 4.624012102652723 3.6253311763263616 5.802112774490928 Q2.803101129048345 6.576848662841115 2.462599902950547 7.988591104245742 Q2.2923489732788473 8.694461533391053 2.2865444330101123 9.245385207030061 L2.2865444330101123 9.245913703255301z" stroke="none"/><path fill="#fc8b00" fill-opacity="1.0" d="M10.02533275945422 25.471249981853447 Q8.518586380135753 25.95900740670453 6.74043710999446 25.06313532864663 Q4.733319844992382 24.051903843884197 5.023220314780441 22.095523219143928 Q5.289381620674609 20.29934739922427 5.8214394830308915 19.74789707632636 Q6.087468915528467 19.472169804058737 6.300265664683475 19.555680650921182 Q6.6083131064551885 19.71531236847209 7.008511239770051 19.7296912652722 Q7.808907506399779 19.758451697395763 8.269659697624325 19.03219735617814 Q8.33021275289514 18.937612890705086 8.87007220106663 18.168032149258902 Q9.248139878168722 17.62908895470287 9.459897207438704 17.216100948884886 Q10.084130668998476 15.998675725169694 10.040637250242417 14.424808425509074 Q9.998090533661173 12.880282244188948 10.687669136584015 12.076456820698851 Q11.032457646488435 11.674543599718799 11.385755921872835 11.58153540919795 Q11.402906323590525 11.956930948171493 11.453928504848317 12.500293985946808 Q11.555974186625573 13.58701905885857 11.725333875883088 14.426853544950825 Q12.267286570162073 17.114319910998752 13.279160799210418 16.32507267197673 Q14.295975927067463 15.54110596248788 15.021970373735975 15.006932373805238 Q15.384964694694558 14.73984816521679 15.544596412245465 14.629558100637208 Q15.76412155423189 15.123291780856075 15.952282041557003 15.909860390982132 Q16.32860090538856 17.482997083529575 16.171772882739994 18.947170677656185 Q15.952215550768805 20.99701624241585 14.697729628203353 22.536099625017314 Q13.129622488848872 24.45995358941682 10.024806637899987 25.47125156496745 L10.02533275945422 25.471249981853447z" stroke="none"/></g><g transform="translate(642.5 389.109)"><clipPath id="id8"><path d="M0 0 L101.0 0 L101.0 21.0 L0 21.0z"/></clipPath><text font-size="12" clip-path="url(#id8)" text-decoration="none" fill="#000000" font-family="Arial,Arial" font-style="normal" font-weight="normal"><tspan x="2.0" xml:space="preserve" y="14.0" textLength="91.0">Nodo de captura</tspan></text></g><g transform="translate(579.0 330.0)"><clipPath id="id9"><path d="M0 0 L75.0 0 L75.0 40.0 L0 40.0z"/></clipPath><text font-size="12" clip-path="url(#id9)" text-decoration="none" fill="#000000" font-family="Arial,Arial" font-style="normal" font-weight="normal"><tspan x="11.0" xml:space="preserve" y="14.0" textLength="56.0">Puerto de </tspan><tspan x="21.0" xml:space="preserve" y="29.0" textLength="32.0">SPAN</tspan></text></g></g></svg>