<?xml version="1.0" encoding="utf-8"?>
<svg contentScriptType="text/ecmascript" xmlns:xlink="http://www.w3.org/1999/xlink" zoomAndPan="magnify" contentStyleType="text/css" viewBox="342.0 132.8733091778554 418.0 291.2311908221446" xmlns:cacoo="http://cacoo.com/" preserveAspectRatio="xMidYMin meet" xmlns="http://www.w3.org/2000/svg" version="1.1"><defs><linearGradient x1="0%" xmlns:xlink="http://www.w3.org/1999/xlink" y1="0%" x2="0%" y2="100%" xlink:type="simple" xlink:actuate="onLoad" id="id0" xlink:show="other"><stop stop-opacity="1.0" stop-color="#d4e1f5" offset="0%"/><stop stop-opacity="1.0" stop-color="#ffffff" offset="100%"/></linearGradient><linearGradient x1="0%" xmlns:xlink="http://www.w3.org/1999/xlink" y1="0%" x2="0%" y2="100%" xlink:type="simple" xlink:actuate="onLoad" id="id1" xlink:show="other"><stop stop-opacity="1.0" stop-color="#d4e1f5" offset="0%"/><stop stop-opacity="1.0" stop-color="#ffffff" offset="100%"/></linearGradient><linearGradient x1="0%" xmlns:xlink="http://www.w3.org/1999/xlink" y1="0%" x2="0%" y2="100%" xlink:type="simple" xlink:actuate="onLoad" id="id2" xlink:show="other"><stop stop-opacity="1.0" stop-color="#d4e1f5" offset="0%"/><stop stop-opacity="1.0" stop-color="#ffffff" offset="100%"/></linearGradient><linearGradient x1="0%" xmlns:xlink="http://www.w3.org/1999/xlink" y1="0%" x2="0%" y2="100%" xlink:type="simple" xlink:actuate="onLoad" id="id3" xlink:show="other"><stop stop-opacity="1.0" stop-color="#d4e1f5" offset="0%"/><stop stop-opacity="1.0" stop-color="#ffffff" offset="100%"/></linearGradient><linearGradient x1="0%" xmlns:xlink="http://www.w3.org/1999/xlink" y1="0%" x2="0%" y2="100%" xlink:type="simple" xlink:actuate="onLoad" id="id4" xlink:show="other"><stop stop-opacity="1.0" stop-color="#d4e1f5" offset="0%"/><stop stop-opacity="1.0" stop-color="#ffffff" offset="100%"/></linearGradient><marker refX="0.0" refY="7.0" markerUnits="userSpaceOnUse" orient="auto" id="id6" markerHeight="14.0" viewBox="0 0 14.0 14.0" preserveAspectRatio="xMidYMid meet" markerWidth="14.0" overflow="visible"><path fill="#000000" d="M7.0 3.5 L0 7.0 L7.0 10.5z" stroke-width="4.0" stroke-linejoin="round" stroke-linecap="round" stroke="#000000"/></marker><marker refX="14.0" refY="7.0" markerUnits="userSpaceOnUse" orient="auto" id="id7" markerHeight="14.0" viewBox="0 0 14.0 14.0" preserveAspectRatio="xMidYMid meet" markerWidth="14.0" overflow="visible"><path fill="#000000" d="M7.0 3.5 L14.0 7.0 L7.0 10.5z" stroke-width="4.0" stroke-linejoin="round" stroke-linecap="round" stroke="#000000"/></marker><marker refX="0.0" refY="7.0" markerUnits="userSpaceOnUse" orient="auto" id="id8" markerHeight="14.0" viewBox="0 0 14.0 14.0" preserveAspectRatio="xMidYMid meet" markerWidth="14.0" overflow="visible"><path fill="#000000" d="M7.0 3.5 L0 7.0 L7.0 10.5z" stroke-width="1.0" stroke-linejoin="round" stroke-linecap="round" stroke="#000000"/></marker><marker refX="14.0" refY="7.0" markerUnits="userSpaceOnUse" orient="auto" id="id9" markerHeight="14.0" viewBox="0 0 14.0 14.0" preserveAspectRatio="xMidYMid meet" markerWidth="14.0" overflow="visible"><path fill="#000000" d="M7.0 3.5 L14.0 7.0 L7.0 10.5z" stroke-width="1.0" stroke-linejoin="round" stroke-linecap="round" stroke="#000000"/></marker><marker refX="0.0" refY="7.0" markerUnits="userSpaceOnUse" orient="auto" id="id10" markerHeight="14.0" viewBox="0 0 14.0 14.0" preserveAspectRatio="xMidYMid meet" markerWidth="14.0" overflow="visible"><path fill="#000000" d="M7.0 3.5 L0 7.0 L7.0 10.5z" stroke-width="1.0" stroke-linejoin="round" stroke-linecap="round" stroke="#000000"/></marker><marker refX="14.0" refY="7.0" markerUnits="userSpaceOnUse" orient="auto" id="id11" markerHeight="14.0" viewBox="0 0 14.0 14.0" preserveAspectRatio="xMidYMid meet" markerWidth="14.0" overflow="visible"><path fill="#000000" d="M7.0 3.5 L14.0 7.0 L7.0 10.5z" stroke-width="1.0" stroke-linejoin="round" stroke-linecap="round" stroke="#000000"/></marker><marker refX="0.0" refY="7.0" markerUnits="userSpaceOnUse" orient="auto" id="id12" markerHeight="14.0" viewBox="0 0 14.0 14.0" preserveAspectRatio="xMidYMid meet" markerWidth="14.0" overflow="visible"><path fill="#000000" d="M7.0 3.5 L0 7.0 L7.0 10.5z" stroke-width="1.0" stroke-linejoin="round" stroke-linecap="round" stroke="#000000"/></marker><marker refX="14.0" refY="7.0" markerUnits="userSpaceOnUse" orient="auto" id="id13" markerHeight="14.0" viewBox="0 0 14.0 14.0" preserveAspectRatio="xMidYMid meet" markerWidth="14.0" overflow="visible"><path fill="#000000" d="M7.0 3.5 L14.0 7.0 L7.0 10.5z" stroke-width="1.0" stroke-linejoin="round" stroke-linecap="round" stroke="#000000"/></marker><marker refX="0.0" refY="7.0" markerUnits="userSpaceOnUse" orient="auto" id="id20" markerHeight="14.0" viewBox="0 0 14.0 14.0" preserveAspectRatio="xMidYMid meet" markerWidth="14.0" overflow="visible"><path fill="#000000" d="M7.0 3.5 L0 7.0 L7.0 10.5z" stroke-width="1.0" stroke-linejoin="round" stroke-linecap="round" stroke="#000000"/></marker><marker refX="14.0" refY="7.0" markerUnits="userSpaceOnUse" orient="auto" id="id21" markerHeight="14.0" viewBox="0 0 14.0 14.0" preserveAspectRatio="xMidYMid meet" markerWidth="14.0" overflow="visible"><path fill="#000000" d="M7.0 3.5 L14.0 7.0 L7.0 10.5z" stroke-width="1.0" stroke-linejoin="round" stroke-linecap="round" stroke="#000000"/></marker><marker refX="0.0" refY="7.0" markerUnits="userSpaceOnUse" orient="auto" id="id22" markerHeight="14.0" viewBox="0 0 14.0 14.0" preserveAspectRatio="xMidYMid meet" markerWidth="14.0" overflow="visible"><path fill="#000000" d="M7.0 3.5 L0 7.0 L7.0 10.5z" stroke-width="1.0" stroke-linejoin="round" stroke-linecap="round" stroke="#000000"/></marker><marker refX="14.0" refY="7.0" markerUnits="userSpaceOnUse" orient="auto" id="id23" markerHeight="14.0" viewBox="0 0 14.0 14.0" preserveAspectRatio="xMidYMid meet" markerWidth="14.0" overflow="visible"><path fill="#000000" d="M7.0 3.5 L14.0 7.0 L7.0 10.5z" stroke-width="1.0" stroke-linejoin="round" stroke-linecap="round" stroke="#000000"/></marker></defs><g><g transform="translate(487.501 277.8775)"><path fill="#949ba8" fill-opacity="1.0" d="M88.54699498000001 12.654 L56.85199598 36.234 L0.09399998 23.14 L33.02099998 0.0 L88.54599998 12.654 L88.54699498000001 12.654z" stroke="none"/><path fill="#828999" fill-opacity="1.0" d="M-0.15 23.494 L56.852000000000004 36.703 L56.852000000000004 48.584 L-0.15 35.175999 L-0.15 23.494 L-0.15 23.494z" stroke="none"/><path fill="#757a8a" fill-opacity="1.0" d="M88.932 12.6540004044 L56.223 35.754002 L56.8520016 48.318 L88.99799999999999 24.344 L88.932 12.653 L88.932 12.6540004044z" stroke="none"/><path fill="#a8acb2" fill-opacity="1.0" d="M58.061 36.835 L88.813 13.2339994 L88.532005 12.482999 L56.813 35.126999999999995 Q56.38 35.448999 55.714 35.322998999999996 Q55.56655 35.295503 46.8277 33.386903000000004 Q43.09157 32.570916 37.897217 31.435598 Q33.358913 30.443669 27.696125 29.205499 Q22.93373 28.164201 17.515142 26.979153 Q13.231842 26.042392999999997 8.644984 25.039093 Q5.446259 24.339424 2.3763654 23.667866 Q0.8638282 23.336987 0.0 23.148001 L0.0 23.771 Q0.8697343 23.973141 2.3924356 24.327061 Q5.4395065 25.035288 8.702672 25.793796999999998 Q13.274599 26.856522 17.630104 27.869042 Q23.061964 29.131778999999998 27.874125 30.250626999999998 Q33.54539 31.569215 38.134132 32.636384 Q43.37783 33.855867 47.109516 34.724141 Q55.886784 36.766408999999996 56.004 36.797002 Q56.344 36.885003 56.425003 37.328 L56.425003 48.424999 L56.852 48.319999 Q57.686 48.160001 57.686 46.856999 Q57.686 37.446 57.686 37.446 Q57.671 37.024999 58.061 36.836999 L58.061 36.835z" stroke="none"/><path fill="none" d="M33.404 0.0 L0.0 23.148 L0.0 34.954002 L56.996 48.618004 L88.998 24.345003 L88.998 12.578 L33.404 0.0 L33.404 0.0z" stroke-width="1.0" stroke-linejoin="round" stroke="#757575"/><path fill="none" d="M60.275 33.655 L60.275 33.655z" stroke-width="1.0" stroke-linejoin="round" stroke="#aaaaaa"/><path fill="#9ccc29" fill-opacity="1.0" d="M43.961 36.44 L43.961 39.3779997 L53.788999 41.6909995 L53.788999 38.717999899999995 L43.961 36.4409994507 L43.961 36.44z" stroke-width="1.0" stroke-linejoin="round" stroke="#6d7384"/><path fill="#6d7384" fill-opacity="1.0" d="M1.938 32.4339985 L54.215 44.730999 L54.215 42.897 L1.938 30.782 L1.938 32.4339985 L1.938 32.4339985z" stroke="none"/><path fill="#6d7384" fill-opacity="1.0" d="M42.086000000000006 37.091999 L1.938 27.788 L1.938 29.4400004 L42.086000000000006 38.885002 L42.086000000000006 37.092003 L42.086000000000006 37.091999z" stroke="none"/></g><g transform="translate(362.501 339.4865)"><path fill="#949ba8" fill-opacity="1.0" d="M88.54699498000001 12.654 L56.85199598 36.234 L0.09399998 23.14 L33.02099998 0.0 L88.54599998 12.654 L88.54699498000001 12.654z" stroke="none"/><path fill="#828999" fill-opacity="1.0" d="M-0.15 23.494 L56.852000000000004 36.703 L56.852000000000004 48.584 L-0.15 35.175999 L-0.15 23.494 L-0.15 23.494z" stroke="none"/><path fill="#757a8a" fill-opacity="1.0" d="M88.932 12.6540004044 L56.223 35.754002 L56.8520016 48.318 L88.99799999999999 24.344 L88.932 12.653 L88.932 12.6540004044z" stroke="none"/><path fill="#a8acb2" fill-opacity="1.0" d="M58.061 36.835 L88.813 13.2339994 L88.532005 12.482999 L56.813 35.126999999999995 Q56.38 35.448999 55.714 35.322998999999996 Q55.56655 35.295503 46.8277 33.386903000000004 Q43.09157 32.570916 37.897217 31.435598 Q33.358913 30.443669 27.696125 29.205499 Q22.93373 28.164201 17.515142 26.979153 Q13.231842 26.042392999999997 8.644984 25.039093 Q5.446259 24.339424 2.3763654 23.667866 Q0.8638282 23.336987 0.0 23.148001 L0.0 23.771 Q0.8697343 23.973141 2.3924356 24.327061 Q5.4395065 25.035288 8.702672 25.793796999999998 Q13.274599 26.856522 17.630104 27.869042 Q23.061964 29.131778999999998 27.874125 30.250626999999998 Q33.54539 31.569215 38.134132 32.636384 Q43.37783 33.855867 47.109516 34.724141 Q55.886784 36.766408999999996 56.004 36.797002 Q56.344 36.885003 56.425003 37.328 L56.425003 48.424999 L56.852 48.319999 Q57.686 48.160001 57.686 46.856999 Q57.686 37.446 57.686 37.446 Q57.671 37.024999 58.061 36.836999 L58.061 36.835z" stroke="none"/><path fill="none" d="M33.404 0.0 L0.0 23.148 L0.0 34.954002 L56.996 48.618004 L88.998 24.345003 L88.998 12.578 L33.404 0.0 L33.404 0.0z" stroke-width="1.0" stroke-linejoin="round" stroke="#757575"/><path fill="none" d="M60.275 33.655 L60.275 33.655z" stroke-width="1.0" stroke-linejoin="round" stroke="#aaaaaa"/><path fill="#9ccc29" fill-opacity="1.0" d="M43.961 36.44 L43.961 39.3779997 L53.788999 41.6909995 L53.788999 38.717999899999995 L43.961 36.4409994507 L43.961 36.44z" stroke-width="1.0" stroke-linejoin="round" stroke="#6d7384"/><path fill="#6d7384" fill-opacity="1.0" d="M1.938 32.4339985 L54.215 44.730999 L54.215 42.897 L1.938 30.782 L1.938 32.4339985 L1.938 32.4339985z" stroke="none"/><path fill="#6d7384" fill-opacity="1.0" d="M42.086000000000006 37.091999 L1.938 27.788 L1.938 29.4400004 L42.086000000000006 38.885002 L42.086000000000006 37.092003 L42.086000000000006 37.091999z" stroke="none"/></g><g transform="translate(362.501 326.4955)"><path fill="#949ba8" fill-opacity="1.0" d="M88.54499501000001 12.654 L56.85100301 36.235 L0.09200001 23.141 L33.01900201 0.0 L88.54499501000001 12.654 L88.54499501000001 12.654z" stroke="none"/><path fill="#828999" fill-opacity="1.0" d="M-0.15400001 23.495 L56.850999990000005 36.703002 L56.850999990000005 48.584003 L-0.15400001 35.178001 L-0.15400001 23.495 L-0.15400001 23.495z" stroke="none"/><path fill="#757a8a" fill-opacity="1.0" d="M88.93 12.654 L56.22 35.754002 L56.8510005 48.318 L88.99799999999999 24.344 L88.93 12.654 L88.93 12.654z" stroke="none"/><path fill="#a8acb2" fill-opacity="1.0" d="M58.057 36.835999 L88.811 13.233999 L88.528 12.483999 L56.809 35.126999 Q56.378998 35.448997000000006 55.711998 35.323997000000006 Q55.564865 35.29684 46.82644 33.388172 Q43.118153 32.578197 37.89629 31.436722 Q33.350105 30.442945 27.6955 29.206375 Q22.906588 28.159118 17.514772 26.979732 Q13.12857 26.020311 8.644813 25.03939 Q5.5001736 24.351434 2.3763204 23.6679475 Q0.86381245 23.337017000000003 0.0 23.148000000000003 L0.0 23.770000000000003 Q0.8697188 23.972141 2.3923926 24.326063 Q5.4377403 25.033907 8.702516 25.792812 Q13.263971 26.853136 17.629787 27.868095 Q23.084192 29.136125 27.873625 30.249749 Q33.57463 31.575332 38.13345 32.635627 Q43.375843 33.854904000000005 47.108673 34.723563999999996 Q55.885796 36.766067 56.003 36.797001 Q56.342 36.885002 56.421997 37.327999000000005 L56.421997 48.425999000000004 L56.850998 48.318999000000005 Q57.684 48.161001 57.684 46.855999 Q57.684 37.445999 57.684 37.445999 Q57.669 37.023998000000006 58.057 36.836998 L58.057 36.835999z" stroke="none"/><path fill="none" d="M33.404 0.0 L0.0 23.148 L0.0 34.953003 L56.992 48.617004 L88.998 24.344004 L88.998 12.579 L33.404 0.0 L33.404 0.0z" stroke-width="1.0" stroke-linejoin="round" stroke="#757575"/><path fill="none" d="M60.272 33.655 L60.272 33.655z" stroke-width="1.0" stroke-linejoin="round" stroke="#aaaaaa"/><path fill="#9ccc29" fill-opacity="1.0" d="M6.665999899999999 34.0530014 Q6.467548799999999 34.973091000000004 5.5489998 34.776001 L2.7809999 34.119999 Q1.8622484 33.9228668 2.05599974 33.00299834 Q2.2534661 32.082695 3.1729998 32.27999877 L5.941000000000001 32.9379997 Q6.860154099999999 33.1312218 6.665999899999999 34.0530014 L6.665999899999999 34.0530014z" stroke-width="1.0" stroke-linejoin="round" stroke="#6d7384"/><path fill="#949ba8" fill-opacity="1.0" d="M12.4200001 35.4500004 Q12.2250825 36.366836199999995 11.3030005 36.172999999999995 L8.5350008 35.514998999999996 Q7.6147375 35.321162799999996 7.81100081 34.3979984 Q8.01132964 33.476482 8.9290008 33.67699775 L11.697000500000001 34.332995999999994 Q12.615571 34.530089999999994 12.4200001 35.4499966 L12.4200001 35.4500004z" stroke-width="1.0" stroke-linejoin="round" stroke="#6d7384"/><path fill="#949ba8" fill-opacity="1.0" d="M18.176001 36.844000099999995 Q17.978788700000003 37.763116999999994 17.059000400000002 37.5689986 L14.2900003 36.9089987 Q13.372208 36.715685099999995 13.56600034 35.791998099999994 Q13.76372087 34.87414 14.683 35.07099745 L17.4510006 35.728998399999995 Q18.3666767 35.921488 18.176001 36.844000099999995 L18.176001 36.844000099999995z" stroke-width="1.0" stroke-linejoin="round" stroke="#6d7384"/></g><g transform="translate(487.501 264.8685)"><path fill="#949ba8" fill-opacity="1.0" d="M88.54699498000001 12.654 L56.85199598 36.234 L0.09399998 23.14 L33.02099998 0.0 L88.54599998 12.654 L88.54699498000001 12.654z" stroke="none"/><path fill="#828999" fill-opacity="1.0" d="M-0.15 23.494 L56.852000000000004 36.703 L56.852000000000004 48.584 L-0.15 35.175999 L-0.15 23.494 L-0.15 23.494z" stroke="none"/><path fill="#757a8a" fill-opacity="1.0" d="M88.932 12.6540004044 L56.223 35.754002 L56.8520016 48.318 L88.99799999999999 24.344 L88.932 12.653 L88.932 12.6540004044z" stroke="none"/><path fill="#a8acb2" fill-opacity="1.0" d="M58.061 36.835 L88.813 13.2339994 L88.532005 12.482999 L56.813 35.126999999999995 Q56.38 35.448999 55.714 35.322998999999996 Q55.56655 35.295503 46.8277 33.386903000000004 Q43.09157 32.570916 37.897217 31.435598 Q33.358913 30.443669 27.696125 29.205499 Q22.93373 28.164201 17.515142 26.979153 Q13.231842 26.042392999999997 8.644984 25.039093 Q5.446259 24.339424 2.3763654 23.667866 Q0.8638282 23.336987 0.0 23.148001 L0.0 23.771 Q0.8697343 23.973141 2.3924356 24.327061 Q5.4395065 25.035288 8.702672 25.793796999999998 Q13.274599 26.856522 17.630104 27.869042 Q23.061964 29.131778999999998 27.874125 30.250626999999998 Q33.54539 31.569215 38.134132 32.636384 Q43.37783 33.855867 47.109516 34.724141 Q55.886784 36.766408999999996 56.004 36.797002 Q56.344 36.885003 56.425003 37.328 L56.425003 48.424999 L56.852 48.319999 Q57.686 48.160001 57.686 46.856999 Q57.686 37.446 57.686 37.446 Q57.671 37.024999 58.061 36.836999 L58.061 36.835z" stroke="none"/><path fill="none" d="M33.404 0.0 L0.0 23.148 L0.0 34.954002 L56.996 48.618004 L88.998 24.345003 L88.998 12.578 L33.404 0.0 L33.404 0.0z" stroke-width="1.0" stroke-linejoin="round" stroke="#757575"/><path fill="none" d="M60.275 33.655 L60.275 33.655z" stroke-width="1.0" stroke-linejoin="round" stroke="#aaaaaa"/><path fill="#9ccc29" fill-opacity="1.0" d="M43.961 36.44 L43.961 39.3779997 L53.788999 41.6909995 L53.788999 38.717999899999995 L43.961 36.4409994507 L43.961 36.44z" stroke-width="1.0" stroke-linejoin="round" stroke="#6d7384"/><path fill="#6d7384" fill-opacity="1.0" d="M1.938 32.4339985 L54.215 44.730999 L54.215 42.897 L1.938 30.782 L1.938 32.4339985 L1.938 32.4339985z" stroke="none"/><path fill="#6d7384" fill-opacity="1.0" d="M42.086000000000006 37.091999 L1.938 27.788 L1.938 29.4400004 L42.086000000000006 38.885002 L42.086000000000006 37.092003 L42.086000000000006 37.091999z" stroke="none"/></g><g transform="translate(487.501 251.8775)"><path fill="#949ba8" fill-opacity="1.0" d="M88.54499501000001 12.654 L56.85100301 36.235 L0.09200001 23.141 L33.01900201 0.0 L88.54499501000001 12.654 L88.54499501000001 12.654z" stroke="none"/><path fill="#828999" fill-opacity="1.0" d="M-0.15400001 23.495 L56.850999990000005 36.703002 L56.850999990000005 48.584003 L-0.15400001 35.178001 L-0.15400001 23.495 L-0.15400001 23.495z" stroke="none"/><path fill="#757a8a" fill-opacity="1.0" d="M88.93 12.654 L56.22 35.754002 L56.8510005 48.318 L88.99799999999999 24.344 L88.93 12.654 L88.93 12.654z" stroke="none"/><path fill="#a8acb2" fill-opacity="1.0" d="M58.057 36.835999 L88.811 13.233999 L88.528 12.483999 L56.809 35.126999 Q56.378998 35.448997000000006 55.711998 35.323997000000006 Q55.564865 35.29684 46.82644 33.388172 Q43.118153 32.578197 37.89629 31.436722 Q33.350105 30.442945 27.6955 29.206375 Q22.906588 28.159118 17.514772 26.979732 Q13.12857 26.020311 8.644813 25.03939 Q5.5001736 24.351434 2.3763204 23.6679475 Q0.86381245 23.337017000000003 0.0 23.148000000000003 L0.0 23.770000000000003 Q0.8697188 23.972141 2.3923926 24.326063 Q5.4377403 25.033907 8.702516 25.792812 Q13.263971 26.853136 17.629787 27.868095 Q23.084192 29.136125 27.873625 30.249749 Q33.57463 31.575332 38.13345 32.635627 Q43.375843 33.854904000000005 47.108673 34.723563999999996 Q55.885796 36.766067 56.003 36.797001 Q56.342 36.885002 56.421997 37.327999000000005 L56.421997 48.425999000000004 L56.850998 48.318999000000005 Q57.684 48.161001 57.684 46.855999 Q57.684 37.445999 57.684 37.445999 Q57.669 37.023998000000006 58.057 36.836998 L58.057 36.835999z" stroke="none"/><path fill="none" d="M33.404 0.0 L0.0 23.148 L0.0 34.953003 L56.992 48.617004 L88.998 24.344004 L88.998 12.579 L33.404 0.0 L33.404 0.0z" stroke-width="1.0" stroke-linejoin="round" stroke="#757575"/><path fill="none" d="M60.272 33.655 L60.272 33.655z" stroke-width="1.0" stroke-linejoin="round" stroke="#aaaaaa"/><path fill="#9ccc29" fill-opacity="1.0" d="M6.665999899999999 34.0530014 Q6.467548799999999 34.973091000000004 5.5489998 34.776001 L2.7809999 34.119999 Q1.8622484 33.9228668 2.05599974 33.00299834 Q2.2534661 32.082695 3.1729998 32.27999877 L5.941000000000001 32.9379997 Q6.860154099999999 33.1312218 6.665999899999999 34.0530014 L6.665999899999999 34.0530014z" stroke-width="1.0" stroke-linejoin="round" stroke="#6d7384"/><path fill="#949ba8" fill-opacity="1.0" d="M12.4200001 35.4500004 Q12.2250825 36.366836199999995 11.3030005 36.172999999999995 L8.5350008 35.514998999999996 Q7.6147375 35.321162799999996 7.81100081 34.3979984 Q8.01132964 33.476482 8.9290008 33.67699775 L11.697000500000001 34.332995999999994 Q12.615571 34.530089999999994 12.4200001 35.4499966 L12.4200001 35.4500004z" stroke-width="1.0" stroke-linejoin="round" stroke="#6d7384"/><path fill="#949ba8" fill-opacity="1.0" d="M18.176001 36.844000099999995 Q17.978788700000003 37.763116999999994 17.059000400000002 37.5689986 L14.2900003 36.9089987 Q13.372208 36.715685099999995 13.56600034 35.791998099999994 Q13.76372087 34.87414 14.683 35.07099745 L17.4510006 35.728998399999995 Q18.3666767 35.921488 18.176001 36.844000099999995 L18.176001 36.844000099999995z" stroke-width="1.0" stroke-linejoin="round" stroke="#6d7384"/></g><g transform="translate(615.501 332.99099999999993)"><path fill="#949ba8" fill-opacity="1.0" d="M88.54699498000001 12.654 L56.85199598 36.234 L0.09399998 23.14 L33.02099998 0.0 L88.54599998 12.654 L88.54699498000001 12.654z" stroke="none"/><path fill="#828999" fill-opacity="1.0" d="M-0.15 23.494 L56.852000000000004 36.703 L56.852000000000004 48.584 L-0.15 35.175999 L-0.15 23.494 L-0.15 23.494z" stroke="none"/><path fill="#757a8a" fill-opacity="1.0" d="M88.932 12.6540004044 L56.223 35.754002 L56.8520016 48.318 L88.99799999999999 24.344 L88.932 12.653 L88.932 12.6540004044z" stroke="none"/><path fill="#a8acb2" fill-opacity="1.0" d="M58.061 36.835 L88.813 13.2339994 L88.532005 12.482999 L56.813 35.126999999999995 Q56.38 35.448999 55.714 35.322998999999996 Q55.56655 35.295503 46.8277 33.386903000000004 Q43.09157 32.570916 37.897217 31.435598 Q33.358913 30.443669 27.696125 29.205499 Q22.93373 28.164201 17.515142 26.979153 Q13.231842 26.042392999999997 8.644984 25.039093 Q5.446259 24.339424 2.3763654 23.667866 Q0.8638282 23.336987 0.0 23.148001 L0.0 23.771 Q0.8697343 23.973141 2.3924356 24.327061 Q5.4395065 25.035288 8.702672 25.793796999999998 Q13.274599 26.856522 17.630104 27.869042 Q23.061964 29.131778999999998 27.874125 30.250626999999998 Q33.54539 31.569215 38.134132 32.636384 Q43.37783 33.855867 47.109516 34.724141 Q55.886784 36.766408999999996 56.004 36.797002 Q56.344 36.885003 56.425003 37.328 L56.425003 48.424999 L56.852 48.319999 Q57.686 48.160001 57.686 46.856999 Q57.686 37.446 57.686 37.446 Q57.671 37.024999 58.061 36.836999 L58.061 36.835z" stroke="none"/><path fill="none" d="M33.404 0.0 L0.0 23.148 L0.0 34.954002 L56.996 48.618004 L88.998 24.345003 L88.998 12.578 L33.404 0.0 L33.404 0.0z" stroke-width="1.0" stroke-linejoin="round" stroke="#757575"/><path fill="none" d="M60.275 33.655 L60.275 33.655z" stroke-width="1.0" stroke-linejoin="round" stroke="#aaaaaa"/><path fill="#9ccc29" fill-opacity="1.0" d="M43.961 36.44 L43.961 39.3779997 L53.788999 41.6909995 L53.788999 38.717999899999995 L43.961 36.4409994507 L43.961 36.44z" stroke-width="1.0" stroke-linejoin="round" stroke="#6d7384"/><path fill="#6d7384" fill-opacity="1.0" d="M1.938 32.4339985 L54.215 44.730999 L54.215 42.897 L1.938 30.782 L1.938 32.4339985 L1.938 32.4339985z" stroke="none"/><path fill="#6d7384" fill-opacity="1.0" d="M42.086000000000006 37.091999 L1.938 27.788 L1.938 29.4400004 L42.086000000000006 38.885002 L42.086000000000006 37.092003 L42.086000000000006 37.091999z" stroke="none"/></g><g transform="translate(483.2505 147.8733091778554)"><path fill="url(#id0)" d="M93.86685372949654 34.013060946043105 Q97.09470364673031 30.069652129884457 97.09470364673031 24.97997185948133 Q97.09470364673031 19.07353307433912 92.91683228976541 14.89599754418379 Q88.7392511132476 10.718744043339408 82.83347093990669 10.718744043339408 Q82.81717355827912 10.71955915695487 82.80086639528817 10.720373781502165 Q78.66018052146069 3.64192714482084 70.4942810290267 3.64192714482084 Q65.97091072432991 3.64192714482084 62.27304510346614 6.258441850457304 Q58.02509190807096 0.0 50.46857461501161 0.0 Q42.36794453022221 0.0 38.21089606567793 7.000195729596869 Q34.23014526456769 3.641927959934456 29.02782607387095 3.641927959934456 Q18.86527643627 3.641927959934456 15.555628237497281 13.257007841891415 Q14.711985645493002 13.144522162957513 14.060709866738007 13.144522162957513 Q3.0354831039844834 13.144522162957513 3.0354831039844834 24.17137915294196 Q3.0354831039844834 27.065625890547928 4.471713294430417 29.595145150233247 Q0.0 33.830806432307256 0.0 39.94708806661428 Q0.0 45.85502829103616 4.176642165632785 50.03167208689618 Q8.35328433126557 54.208315882756196 14.26122781614192 54.208315882756196 Q15.005512949102947 54.208315882756196 15.89471550152992 54.105611567207845 Q20.089105951025797 60.884096393398764 28.01708519069674 60.884096393398764 Q33.52783848280301 60.884096393398764 37.62890494423729 57.136203989499556 Q41.45996176009497 65.43406059491363 50.56964870332904 65.43406059491363 Q59.78470864408848 65.43406059491363 63.5739713244269 57.00578907147992 Q67.70012046203621 60.88410291430768 73.32599061982711 60.88410291430768 Q81.98758026455097 60.88410291430768 85.98470506796862 53.16986928779239 Q86.47866391893925 53.19921663840353 86.47703043125385 53.19921663840353 Q97.50063022723091 53.19921663840353 97.50063022723091 42.172359648419075 Q97.50063022723091 37.29699068002073 93.86685372949654 34.01144213040279 L93.86685372949654 34.013060946043105z" stroke-width="1.0" stroke-linejoin="round" stroke="#000000"/><path fill="url(#id1)" d="M15.881672868568895 54.12028687274064 Q13.757485971558513 50.68455755201899 13.757485971558513 46.62450239098767 Q13.757485971558513 45.959368148356205 13.816174559428662 45.30891031981206" stroke-width="1.0" stroke-linejoin="round" stroke="#000000"/><path fill="url(#id2)" d="M63.97174839900012 57.3872606132894 Q61.78428987260755 55.488150223803224 60.510774357516674 52.884571371244164" stroke-width="1.0" stroke-linejoin="round" stroke="#000000"/><path fill="url(#id3)" d="M29.02782607387095 3.641927633889009 Q39.80780797291287 3.641927633889009 42.747818449345395 13.99550077750096" stroke-width="1.0" stroke-linejoin="round" stroke="#000000"/><path fill="url(#id4)" d="M93.86848558695469 34.013060946043105 Q91.37693872109116 37.05492068384135 87.70133434213385 38.38859083384888" stroke-width="1.0" stroke-linejoin="round" stroke="#000000"/><g transform="translate(13.716731199629079 12.862493411701392)"><clipPath id="id5"><path d="M0 0 L72.26960546371161 0 L72.26960546371161 42.915733097895455 L0 42.915733097895455z"/></clipPath><text font-size="12" clip-path="url(#id5)" text-decoration="none" fill="#000000" font-family="Arial,Arial" font-style="normal" font-weight="bold"><tspan x="14.0" xml:space="preserve" y="25.957866548947727" textLength="44.0">Internet</tspan></text></g></g><path fill="none" stroke-linejoin="round" d="M576.499 288.341 Q615.942095184803 285.53386584757175 634.2495 296.72724999999997 Q648.2025431314421 305.2583210852903 660.0 332.99099999999993" stroke="#000000" marker-start="url(#id6)" stroke-width="4.0" marker-end="url(#id7)"/><path fill="none" stroke-linejoin="round" d="M487.501 288.341 Q465.0166590652328 277.6067622517051 450.5 278.4635 Q440.1285400390625 279.0755920410156 433.1076354980469 281.6671142578125 Q425.0218505859375 284.6517028808594 419.0 291.0 Q409.6373406532721 300.8701279015953 407.0 326.4955" stroke="#000000" marker-start="url(#id8)" stroke-width="1.0" marker-end="url(#id9)"/><path fill="none" stroke-linejoin="round" d="M407.0 326.4955 Q404.61385525820623 295.5701304385737 414.0 283.4635 Q419.6805725097656 276.136474609375 428.4953918457031 272.4000244140625 Q436.9031066894531 268.83612060546875 447.0 269.0 Q463.32163746686115 269.26484361206224 487.501 288.341" stroke="#000000" marker-start="url(#id10)" stroke-width="1.0" marker-end="url(#id11)"/><path fill="none" stroke-linejoin="round" stroke-dasharray="3.0 3.0" d="M532.0 251.8775 Q532.0 247.84369999999998 532.0 245.15449999999998 Q532.0 232.41629999999998 532.0 213.30899999999997" stroke="#000000" marker-start="url(#id12)" stroke-width="1.0" marker-end="url(#id13)"/><g transform="translate(595.0 264.8685)"><clipPath id="id14"><path d="M0 0 L150.0 0 L150.0 40.0 L0 40.0z"/></clipPath><text font-size="12" clip-path="url(#id14)" text-decoration="none" fill="#000000" font-family="Arial,Arial" font-style="normal" font-weight="normal"><tspan x="2.0" xml:space="preserve" y="14.0" textLength="64.0">40/56 Gbps</tspan></text></g><g transform="translate(419.501 289.1775)"><clipPath id="id15"><path d="M0 0 L150.0 0 L150.0 40.0 L0 40.0z"/></clipPath><text font-size="12" clip-path="url(#id15)" text-decoration="none" fill="#000000" font-family="Arial,Arial" font-style="normal" font-weight="normal"><tspan x="2.0" xml:space="preserve" y="14.0" textLength="62.0">2x 10 Gbps</tspan></text></g><g transform="translate(532.0 224.86849999999998)"><clipPath id="id16"><path d="M0 0 L150.0 0 L150.0 40.0 L0 40.0z"/></clipPath><text font-size="12" clip-path="url(#id16)" text-decoration="none" fill="#000000" font-family="Arial,Arial" font-style="normal" font-weight="normal"><tspan x="2.0" xml:space="preserve" y="14.0" textLength="103.0">1 Gbps / 100 Mbps</tspan></text></g><g transform="translate(357.0 388.1045)"><clipPath id="id17"><path d="M0 0 L100.0 0 L100.0 21.0 L0 21.0z"/></clipPath><text font-size="12" clip-path="url(#id17)" text-decoration="none" fill="#000000" font-family="Arial,Arial" font-style="normal" font-weight="normal"><tspan x="31.0" xml:space="preserve" y="14.0" textLength="37.0">Dagda</tspan></text></g><g transform="translate(606.0 381.6089999999999)"><clipPath id="id18"><path d="M0 0 L108.0 0 L108.0 21.0 L0 21.0z"/></clipPath><text font-size="12" clip-path="url(#id18)" text-decoration="none" fill="#000000" font-family="Arial,Arial" font-style="normal" font-weight="normal"><tspan x="30.0" xml:space="preserve" y="14.0" textLength="47.0">Onelab3</tspan></text></g><g transform="translate(478.0 326.4955)"><clipPath id="id19"><path d="M0 0 L108.0 0 L108.0 21.0 L0 21.0z"/></clipPath><text font-size="12" clip-path="url(#id19)" text-decoration="none" fill="#000000" font-family="Arial,Arial" font-style="normal" font-weight="normal"><tspan x="44.0" xml:space="preserve" y="14.0" textLength="20.0">Nrg</tspan></text></g><path fill="none" stroke-linejoin="round" stroke-dasharray="3.0 3.0" d="M362.501 350.80449999999996 Q369.704203098549 268.9098653595632 399.5 242.30899999999997 Q434.75579242410447 210.83360128788726 532.0 213.30899999999997" stroke="#000000" marker-start="url(#id20)" stroke-width="1.0" marker-end="url(#id21)"/><path fill="none" stroke-linejoin="round" stroke-dasharray="3.0 3.0" d="M704.499 345.1454999999999 Q699.459294353121 270.97458778066976 673.0 246.5 Q635.9875587309809 212.26385482069202 532.0 213.30899999999997" stroke="#000000" marker-start="url(#id22)" stroke-width="1.0" marker-end="url(#id23)"/></g></svg>