<svg width="600" height="371" aria-label="Un gráfico" style="overflow: hidden;"><defs id="defs"><clipPath id="_ABSTRACT_RENDERER_ID_182"><rect x="115" y="71" width="371" height="229"></rect></clipPath></defs><rect x="0" y="0" width="600" height="371" stroke="none" stroke-width="0" fill="#ffffff"></rect><g><rect x="498" y="71" width="90" height="12" stroke="none" stroke-width="0" fill-opacity="0" fill="#ffffff"></rect><g><rect x="498" y="71" width="90" height="12" stroke="none" stroke-width="0" fill-opacity="0" fill="#ffffff"></rect><g><text text-anchor="start" x="527" y="81.2" font-family="Arial" font-size="12" stroke="none" stroke-width="0" fill="#222222">Gbps</text></g><path d="M498,77L522,77" stroke="#3366cc" stroke-width="2" fill-opacity="1" fill="none"></path></g></g><g><rect x="115" y="71" width="371" height="229" stroke="none" stroke-width="0" fill-opacity="0" fill="#ffffff"></rect><g clip-path="url(https://docs.google.com/spreadsheets/d/1dabGyhCh95gMepbCHamigHMlRADeVwWQOMmsXZ4wd40/edit#_ABSTRACT_RENDERER_ID_182)"><g><rect x="149" y="71" width="1" height="229" stroke="none" stroke-width="0" fill="#cccccc"></rect><rect x="216" y="71" width="1" height="229" stroke="none" stroke-width="0" fill="#cccccc"></rect><rect x="283" y="71" width="1" height="229" stroke="none" stroke-width="0" fill="#cccccc"></rect><rect x="350" y="71" width="1" height="229" stroke="none" stroke-width="0" fill="#cccccc"></rect><rect x="418" y="71" width="1" height="229" stroke="none" stroke-width="0" fill="#cccccc"></rect><rect x="485" y="71" width="1" height="229" stroke="none" stroke-width="0" fill="#cccccc"></rect><rect x="115" y="299" width="371" height="1" stroke="none" stroke-width="0" fill="#cccccc"></rect><rect x="115" y="242" width="371" height="1" stroke="none" stroke-width="0" fill="#cccccc"></rect><rect x="115" y="185" width="371" height="1" stroke="none" stroke-width="0" fill="#cccccc"></rect><rect x="115" y="128" width="371" height="1" stroke="none" stroke-width="0" fill="#cccccc"></rect><rect x="115" y="71" width="371" height="1" stroke="none" stroke-width="0" fill="#cccccc"></rect></g><g><rect x="115" y="299" width="371" height="1" stroke="none" stroke-width="0" fill="#333333"></rect></g><g><path d="M115.5,281.4025C115.5,281.4025,137.92424242424244,269.705625,149.13636363636363,263.875C160.34848484848484,258.044375,193.9848484848485,240.695,216.4090909090909,228.96249999999998C238.83333333333331,217.23000000000002,339.74242424242425,163.87562499999999,350.95454545454544,157.9975C362.16666666666663,152.11937500000002,373.3787878787878,146.36,384.59090909090907,140.47C395.8030303030303,134.57999999999998,407.01515151515144,128.61875,418.2272727272727,122.6575C429.43939393939394,116.69624999999999,440.6515151515151,110.61625000000001,451.8636363636363,104.70250000000001C463.07575757575756,98.78875,485.49999999999994,87.17499999999998,485.49999999999994,87.17499999999998" stroke="#3366cc" stroke-width="2" fill-opacity="1" fill="none"></path></g><g><rect x="115.5" y="269.4025" width="1" height="12" stroke="none" stroke-width="0" fill-opacity="1" fill="none"></rect><rect x="149.13636363636363" y="251.875" width="1" height="12" stroke="none" stroke-width="0" fill-opacity="1" fill="none"></rect><rect x="216.4090909090909" y="216.96249999999998" width="1" height="12" stroke="none" stroke-width="0" fill-opacity="1" fill="none"></rect><rect x="350.95454545454544" y="145.9975" width="1" height="12" stroke="none" stroke-width="0" fill-opacity="1" fill="none"></rect><rect x="384.59090909090907" y="128.47" width="1" height="12" stroke="none" stroke-width="0" fill-opacity="1" fill="none"></rect><rect x="418.2272727272727" y="110.6575" width="1" height="12" stroke="none" stroke-width="0" fill-opacity="1" fill="none"></rect><rect x="451.8636363636363" y="92.70250000000001" width="1" height="12" stroke="none" stroke-width="0" fill-opacity="1" fill="none"></rect><rect x="485.49999999999994" y="87.17499999999998" width="1" height="12" stroke="none" stroke-width="0" fill-opacity="1" fill="none"></rect></g></g><g></g><g><g><text text-anchor="middle" x="149.13636363636363" y="317.2" font-family="Arial" font-size="12" stroke="none" stroke-width="0" fill="#444444">2</text></g><g><text text-anchor="middle" x="216.4090909090909" y="317.2" font-family="Arial" font-size="12" stroke="none" stroke-width="0" fill="#444444">4</text></g><g><text text-anchor="middle" x="283.68181818181813" y="317.2" font-family="Arial" font-size="12" stroke="none" stroke-width="0" fill="#444444">6</text></g><g><text text-anchor="middle" x="350.95454545454544" y="317.2" font-family="Arial" font-size="12" stroke="none" stroke-width="0" fill="#444444">8</text></g><g><text text-anchor="middle" x="418.2272727272727" y="317.2" font-family="Arial" font-size="12" stroke="none" stroke-width="0" fill="#444444">10</text></g><g><text text-anchor="middle" x="485.49999999999994" y="317.2" font-family="Arial" font-size="12" stroke="none" stroke-width="0" fill="#444444">12</text></g><g><text text-anchor="end" x="103" y="303.7" font-family="Arial" font-size="12" stroke="none" stroke-width="0" fill="#444444">0</text></g><g><text text-anchor="end" x="103" y="246.7" font-family="Arial" font-size="12" stroke="none" stroke-width="0" fill="#444444">4</text></g><g><text text-anchor="end" x="103" y="189.7" font-family="Arial" font-size="12" stroke="none" stroke-width="0" fill="#444444">8</text></g><g><text text-anchor="end" x="103" y="132.7" font-family="Arial" font-size="12" stroke="none" stroke-width="0" fill="#444444">12</text></g><g><text text-anchor="end" x="103" y="75.7" font-family="Arial" font-size="12" stroke="none" stroke-width="0" fill="#444444">16</text></g></g><g><g><g><rect x="101.5" y="256.5" width="29" height="14" stroke="none" stroke-width="0" fill-opacity="0" fill="#ffffff"></rect><g><text text-anchor="middle" x="115.5" y="267.60249999999996" font-family="Arial" font-size="12" stroke="#ffffff" stroke-width="3" fill="#3366cc" aria-hidden="true">1,27</text><text text-anchor="middle" x="115.5" y="267.60249999999996" font-family="Arial" font-size="12" stroke="none" stroke-width="0" fill="#3366cc">1,27</text></g><rect x="103.5" y="257.4025" width="24" height="12" stroke="none" stroke-width="0" fill-opacity="0" fill="#ffffff"></rect></g></g><g><g><rect x="138.5" y="238.5" width="22" height="14" stroke="none" stroke-width="0" fill-opacity="0" fill="#ffffff"></rect><g><text text-anchor="middle" x="149.13636363636363" y="250.075" font-family="Arial" font-size="12" stroke="#ffffff" stroke-width="3" fill="#3366cc" aria-hidden="true">2,5</text><text text-anchor="middle" x="149.13636363636363" y="250.075" font-family="Arial" font-size="12" stroke="none" stroke-width="0" fill="#3366cc">2,5</text></g><rect x="140.63636363636363" y="239.875" width="17" height="12" stroke="none" stroke-width="0" fill-opacity="0" fill="#ffffff"></rect></g></g><g><g><rect x="202.5" y="203.5" width="29" height="14" stroke="none" stroke-width="0" fill-opacity="0" fill="#ffffff"></rect><g><text text-anchor="middle" x="216.4090909090909" y="215.16249999999997" font-family="Arial" font-size="12" stroke="#ffffff" stroke-width="3" fill="#3366cc" aria-hidden="true">4,95</text><text text-anchor="middle" x="216.4090909090909" y="215.16249999999997" font-family="Arial" font-size="12" stroke="none" stroke-width="0" fill="#3366cc">4,95</text></g><rect x="204.4090909090909" y="204.96249999999998" width="24" height="12" stroke="none" stroke-width="0" fill-opacity="0" fill="#ffffff"></rect></g></g><g><g><rect x="336.5" y="132.5" width="29" height="14" stroke="none" stroke-width="0" fill-opacity="0" fill="#ffffff"></rect><g><text text-anchor="middle" x="350.95454545454544" y="144.1975" font-family="Arial" font-size="12" stroke="#ffffff" stroke-width="3" fill="#3366cc" aria-hidden="true">9,93</text><text text-anchor="middle" x="350.95454545454544" y="144.1975" font-family="Arial" font-size="12" stroke="none" stroke-width="0" fill="#3366cc">9,93</text></g><rect x="338.95454545454544" y="133.9975" width="24" height="12" stroke="none" stroke-width="0" fill-opacity="0" fill="#ffffff"></rect></g></g><g><g><rect x="367.5" y="115.5" width="36" height="14" stroke="none" stroke-width="0" fill-opacity="0" fill="#ffffff"></rect><g><text text-anchor="middle" x="384.59090909090907" y="126.67" font-family="Arial" font-size="12" stroke="#ffffff" stroke-width="3" fill="#3366cc" aria-hidden="true">11,16</text><text text-anchor="middle" x="384.59090909090907" y="126.67" font-family="Arial" font-size="12" stroke="none" stroke-width="0" fill="#3366cc">11,16</text></g><rect x="369.09090909090907" y="116.47" width="31" height="12" stroke="none" stroke-width="0" fill-opacity="0" fill="#ffffff"></rect></g></g><g><g><rect x="400.5" y="97.5" width="36" height="14" stroke="none" stroke-width="0" fill-opacity="0" fill="#ffffff"></rect><g><text text-anchor="middle" x="418.2272727272727" y="108.8575" font-family="Arial" font-size="12" stroke="#ffffff" stroke-width="3" fill="#3366cc" aria-hidden="true">12,41</text><text text-anchor="middle" x="418.2272727272727" y="108.8575" font-family="Arial" font-size="12" stroke="none" stroke-width="0" fill="#3366cc">12,41</text></g><rect x="402.7272727272727" y="98.6575" width="31" height="12" stroke="none" stroke-width="0" fill-opacity="0" fill="#ffffff"></rect></g></g><g><g><rect x="434.5" y="79.5" width="36" height="14" stroke="none" stroke-width="0" fill-opacity="0" fill="#ffffff"></rect><g><text text-anchor="middle" x="451.8636363636363" y="90.90250000000002" font-family="Arial" font-size="12" stroke="#ffffff" stroke-width="3" fill="#3366cc" aria-hidden="true">13,67</text><text text-anchor="middle" x="451.8636363636363" y="90.90250000000002" font-family="Arial" font-size="12" stroke="none" stroke-width="0" fill="#3366cc">13,67</text></g><rect x="436.3636363636363" y="80.70250000000001" width="31" height="12" stroke="none" stroke-width="0" fill-opacity="0" fill="#ffffff"></rect></g></g><g><g><rect x="471.5" y="98.5" width="29" height="14" stroke="none" stroke-width="0" fill-opacity="0" fill="#ffffff"></rect><g><text text-anchor="middle" x="485.49999999999994" y="109.37499999999999" font-family="Arial" font-size="12" stroke="#ffffff" stroke-width="3" fill="#3366cc" aria-hidden="true">14,9</text><text text-anchor="middle" x="485.49999999999994" y="109.37499999999999" font-family="Arial" font-size="12" stroke="none" stroke-width="0" fill="#3366cc">14,9</text></g><rect x="473.49999999999994" y="99.17499999999998" width="24" height="12" stroke="none" stroke-width="0" fill-opacity="0" fill="#ffffff"></rect></g></g></g></g><g><g><text text-anchor="middle" x="300.5" y="349.2" font-family="Arial" font-size="12" font-style="italic" stroke="none" stroke-width="0" fill="#222222">Número de discos</text></g><g><text text-anchor="middle" x="48.7" y="185.5" font-family="Arial" font-size="12" font-style="italic" transform="rotate(-90 48.7 185.5)" stroke="none" stroke-width="0" fill="#222222">Gbps</text></g></g><g></g></svg>
