<svg width="600" height="371" aria-label="Un gráfico" style="overflow: hidden;"><defs id="defs"><clipPath id="_ABSTRACT_RENDERER_ID_186"><rect x="115" y="71" width="371" height="229"></rect></clipPath></defs><rect x="0" y="0" width="600" height="371" stroke="none" stroke-width="0" fill="#ffffff"></rect><g><rect x="498" y="71" width="90" height="12" stroke="none" stroke-width="0" fill-opacity="0" fill="#ffffff"></rect><g><rect x="498" y="71" width="90" height="12" stroke="none" stroke-width="0" fill-opacity="0" fill="#ffffff"></rect><g><text text-anchor="start" x="527" y="81.2" font-family="Arial" font-size="12" stroke="none" stroke-width="0" fill="#222222">Gbps</text></g><path d="M498,77L522,77" stroke="#3366cc" stroke-width="2" fill-opacity="1" fill="none"></path></g></g><g><rect x="115" y="71" width="371" height="229" stroke="none" stroke-width="0" fill-opacity="0" fill="#ffffff"></rect><g clip-path="url(https://docs.google.com/spreadsheets/d/1dabGyhCh95gMepbCHamigHMlRADeVwWQOMmsXZ4wd40/edit#_ABSTRACT_RENDERER_ID_186)"><g><rect x="149" y="71" width="1" height="229" stroke="none" stroke-width="0" fill="#cccccc"></rect><rect x="216" y="71" width="1" height="229" stroke="none" stroke-width="0" fill="#cccccc"></rect><rect x="283" y="71" width="1" height="229" stroke="none" stroke-width="0" fill="#cccccc"></rect><rect x="350" y="71" width="1" height="229" stroke="none" stroke-width="0" fill="#cccccc"></rect><rect x="418" y="71" width="1" height="229" stroke="none" stroke-width="0" fill="#cccccc"></rect><rect x="485" y="71" width="1" height="229" stroke="none" stroke-width="0" fill="#cccccc"></rect><rect x="115" y="299" width="371" height="1" stroke="none" stroke-width="0" fill="#cccccc"></rect><rect x="115" y="242" width="371" height="1" stroke="none" stroke-width="0" fill="#cccccc"></rect><rect x="115" y="185" width="371" height="1" stroke="none" stroke-width="0" fill="#cccccc"></rect><rect x="115" y="128" width="371" height="1" stroke="none" stroke-width="0" fill="#cccccc"></rect><rect x="115" y="71" width="371" height="1" stroke="none" stroke-width="0" fill="#cccccc"></rect></g><g><rect x="115" y="299" width="371" height="1" stroke="none" stroke-width="0" fill="#333333"></rect></g><g><path d="M115.5,281.1175C115.5,281.1175,137.92424242424244,269.325625,149.13636363636363,263.4475C160.34848484848484,257.569375,193.9848484848485,240.00625,216.4090909090909,228.25C238.83333333333331,216.49374999999998,339.74242424242425,163.48375,350.95454545454544,157.57C362.16666666666663,151.65625,373.3787878787878,145.74249999999998,384.59090909090907,139.7575C395.8030303030303,133.77249999999998,407.01515151515144,127.62124999999997,418.2272727272727,121.66C429.43939393939394,115.69874999999999,440.6515151515151,109.80874999999997,451.8636363636363,103.98999999999998C463.07575757575756,98.17124999999999,485.49999999999994,86.7475,485.49999999999994,86.7475" stroke="#3366cc" stroke-width="2" fill-opacity="1" fill="none"></path></g><g><rect x="115.5" y="269.1175" width="1" height="12" stroke="none" stroke-width="0" fill-opacity="1" fill="none"></rect><rect x="149.13636363636363" y="251.4475" width="1" height="12" stroke="none" stroke-width="0" fill-opacity="1" fill="none"></rect><rect x="216.4090909090909" y="216.25" width="1" height="12" stroke="none" stroke-width="0" fill-opacity="1" fill="none"></rect><rect x="350.95454545454544" y="145.57" width="1" height="12" stroke="none" stroke-width="0" fill-opacity="1" fill="none"></rect><rect x="384.59090909090907" y="127.7575" width="1" height="12" stroke="none" stroke-width="0" fill-opacity="1" fill="none"></rect><rect x="418.2272727272727" y="109.66" width="1" height="12" stroke="none" stroke-width="0" fill-opacity="1" fill="none"></rect><rect x="451.8636363636363" y="91.98999999999998" width="1" height="12" stroke="none" stroke-width="0" fill-opacity="1" fill="none"></rect><rect x="485.49999999999994" y="86.7475" width="1" height="12" stroke="none" stroke-width="0" fill-opacity="1" fill="none"></rect></g></g><g></g><g><g><text text-anchor="middle" x="149.13636363636363" y="317.2" font-family="Arial" font-size="12" stroke="none" stroke-width="0" fill="#444444">2</text></g><g><text text-anchor="middle" x="216.4090909090909" y="317.2" font-family="Arial" font-size="12" stroke="none" stroke-width="0" fill="#444444">4</text></g><g><text text-anchor="middle" x="283.68181818181813" y="317.2" font-family="Arial" font-size="12" stroke="none" stroke-width="0" fill="#444444">6</text></g><g><text text-anchor="middle" x="350.95454545454544" y="317.2" font-family="Arial" font-size="12" stroke="none" stroke-width="0" fill="#444444">8</text></g><g><text text-anchor="middle" x="418.2272727272727" y="317.2" font-family="Arial" font-size="12" stroke="none" stroke-width="0" fill="#444444">10</text></g><g><text text-anchor="middle" x="485.49999999999994" y="317.2" font-family="Arial" font-size="12" stroke="none" stroke-width="0" fill="#444444">12</text></g><g><text text-anchor="end" x="103" y="303.7" font-family="Arial" font-size="12" stroke="none" stroke-width="0" fill="#444444">0</text></g><g><text text-anchor="end" x="103" y="246.7" font-family="Arial" font-size="12" stroke="none" stroke-width="0" fill="#444444">4</text></g><g><text text-anchor="end" x="103" y="189.7" font-family="Arial" font-size="12" stroke="none" stroke-width="0" fill="#444444">8</text></g><g><text text-anchor="end" x="103" y="132.7" font-family="Arial" font-size="12" stroke="none" stroke-width="0" fill="#444444">12</text></g><g><text text-anchor="end" x="103" y="75.7" font-family="Arial" font-size="12" stroke="none" stroke-width="0" fill="#444444">16</text></g></g><g><g><g><rect x="101.5" y="256.5" width="29" height="14" stroke="none" stroke-width="0" fill-opacity="0" fill="#ffffff"></rect><g><text text-anchor="middle" x="115.5" y="267.3175" font-family="Arial" font-size="12" stroke="#ffffff" stroke-width="3" fill="#3366cc" aria-hidden="true">1,29</text><text text-anchor="middle" x="115.5" y="267.3175" font-family="Arial" font-size="12" stroke="none" stroke-width="0" fill="#3366cc">1,29</text></g><rect x="104" y="257.1175" width="23" height="12" stroke="none" stroke-width="0" fill-opacity="0" fill="#ffffff"></rect></g></g><g><g><rect x="135.5" y="238.5" width="28" height="14" stroke="none" stroke-width="0" fill-opacity="0" fill="#ffffff"></rect><g><text text-anchor="middle" x="149.13636363636363" y="249.64749999999998" font-family="Arial" font-size="12" stroke="#ffffff" stroke-width="3" fill="#3366cc" aria-hidden="true">2,53</text><text text-anchor="middle" x="149.13636363636363" y="249.64749999999998" font-family="Arial" font-size="12" stroke="none" stroke-width="0" fill="#3366cc">2,53</text></g><rect x="137.63636363636363" y="239.4475" width="23" height="12" stroke="none" stroke-width="0" fill-opacity="0" fill="#ffffff"></rect></g></g><g><g><rect x="210.5" y="203.5" width="12" height="14" stroke="none" stroke-width="0" fill-opacity="0" fill="#ffffff"></rect><g><text text-anchor="middle" x="216.4090909090909" y="214.45" font-family="Arial" font-size="12" stroke="#ffffff" stroke-width="3" fill="#3366cc" aria-hidden="true">5</text><text text-anchor="middle" x="216.4090909090909" y="214.45" font-family="Arial" font-size="12" stroke="none" stroke-width="0" fill="#3366cc">5</text></g><rect x="212.9090909090909" y="204.25" width="7" height="12" stroke="none" stroke-width="0" fill-opacity="0" fill="#ffffff"></rect></g></g><g><g><rect x="337.5" y="132.5" width="28" height="14" stroke="none" stroke-width="0" fill-opacity="0" fill="#ffffff"></rect><g><text text-anchor="middle" x="350.95454545454544" y="143.76999999999998" font-family="Arial" font-size="12" stroke="#ffffff" stroke-width="3" fill="#3366cc" aria-hidden="true">9,96</text><text text-anchor="middle" x="350.95454545454544" y="143.76999999999998" font-family="Arial" font-size="12" stroke="none" stroke-width="0" fill="#3366cc">9,96</text></g><rect x="339.45454545454544" y="133.57" width="23" height="12" stroke="none" stroke-width="0" fill-opacity="0" fill="#ffffff"></rect></g></g><g><g><rect x="367.5" y="114.5" width="35" height="14" stroke="none" stroke-width="0" fill-opacity="0" fill="#ffffff"></rect><g><text text-anchor="middle" x="384.59090909090907" y="125.9575" font-family="Arial" font-size="12" stroke="#ffffff" stroke-width="3" fill="#3366cc" aria-hidden="true">11,21</text><text text-anchor="middle" x="384.59090909090907" y="125.9575" font-family="Arial" font-size="12" stroke="none" stroke-width="0" fill="#3366cc">11,21</text></g><rect x="369.59090909090907" y="115.7575" width="30" height="12" stroke="none" stroke-width="0" fill-opacity="0" fill="#ffffff"></rect></g></g><g><g><rect x="401.5" y="96.5" width="35" height="14" stroke="none" stroke-width="0" fill-opacity="0" fill="#ffffff"></rect><g><text text-anchor="middle" x="418.2272727272727" y="107.86" font-family="Arial" font-size="12" stroke="#ffffff" stroke-width="3" fill="#3366cc" aria-hidden="true">12,48</text><text text-anchor="middle" x="418.2272727272727" y="107.86" font-family="Arial" font-size="12" stroke="none" stroke-width="0" fill="#3366cc">12,48</text></g><rect x="403.2272727272727" y="97.66" width="30" height="12" stroke="none" stroke-width="0" fill-opacity="0" fill="#ffffff"></rect></g></g><g><g><rect x="434.5" y="78.5" width="35" height="14" stroke="none" stroke-width="0" fill-opacity="0" fill="#ffffff"></rect><g><text text-anchor="middle" x="451.8636363636363" y="90.18999999999998" font-family="Arial" font-size="12" stroke="#ffffff" stroke-width="3" fill="#3366cc" aria-hidden="true">13,72</text><text text-anchor="middle" x="451.8636363636363" y="90.18999999999998" font-family="Arial" font-size="12" stroke="none" stroke-width="0" fill="#3366cc">13,72</text></g><rect x="436.8636363636363" y="79.98999999999998" width="30" height="12" stroke="none" stroke-width="0" fill-opacity="0" fill="#ffffff"></rect></g></g><g><g><rect x="468.5" y="97.5" width="35" height="14" stroke="none" stroke-width="0" fill-opacity="0" fill="#ffffff"></rect><g><text text-anchor="middle" x="485.49999999999994" y="108.9475" font-family="Arial" font-size="12" stroke="#ffffff" stroke-width="3" fill="#3366cc" aria-hidden="true">14,93</text><text text-anchor="middle" x="485.49999999999994" y="108.9475" font-family="Arial" font-size="12" stroke="none" stroke-width="0" fill="#3366cc">14,93</text></g><rect x="470.49999999999994" y="98.7475" width="30" height="12" stroke="none" stroke-width="0" fill-opacity="0" fill="#ffffff"></rect></g></g></g></g><g><g><text text-anchor="middle" x="300.5" y="349.2" font-family="Arial" font-size="12" font-style="italic" stroke="none" stroke-width="0" fill="#222222">Número de discos</text></g><g><text text-anchor="middle" x="49.2" y="185.5" font-family="Arial" font-size="12" font-style="italic" transform="rotate(-90 49.2 185.5)" stroke="none" stroke-width="0" fill="#222222">Gbps</text></g></g><g></g></svg>
